<svg xmlns="http://www.w3.org/2000/svg" viewBox="0 0 475.84 373.12"><defs><style>.cls-1{fill:#8d8d8e;}.cls-2,.cls-7{fill:none;}.cls-2{stroke:#000;stroke-width:6px;}.cls-2,.cls-4,.cls-5,.cls-7{stroke-miterlimit:10;}.cls-3,.cls-4,.cls-5{fill:#565656;}.cls-4,.cls-5{stroke:#565656;stroke-width:5px;}.cls-4{stroke-linecap:round;}.cls-6{fill:#231f20;}.cls-7{stroke:#231f20;stroke-width:4px;}</style></defs><title>action_1</title><g id="Layer_2" data-name="Layer 2"><g id="Layer_1-2" data-name="Layer 1"><path class="cls-1" d="M469,24.92a20.54,20.54,0,0,1-4.15-8.06,4.39,4.39,0,0,0-2.69-3.28A45.4,45.4,0,0,1,447.88,5a4.68,4.68,0,0,0-6.52.14,4.92,4.92,0,0,0-1.26,2s-1.24,3.25-6.18,3.25l-359,2.66S65.42.37,59.6,3.49c0,0-4.94,11.47-14.55,11.47,0,0-14-14.94-13.67,35.44,0,0-.21,37.62-4.95,42.05,0,0-7.27,13.9,16.3,15.29,0,0,39.57,10.42,17.75,63.94l-56.21,146C1.42,325,3.51,333.8,9.21,338.27c16.66,13.09,55.14,36,116.14,31.2,4.21-.33,7.92-3.45,9.6-8.07l46.9-128.8c6.91-19,26.87-25.67,40.74-13.3.31.27.62.56.93.85l96.77-4.39s11.08,2.13,7-17c0,0-18.33-67.76,18.33-71.58l103.3-3.48s12.51-1.39,14.55-8.68c0,0,8-25.79,2.08-44.09,0,0,4.46-4.73,6.67-16.52C472.22,54.43,474.93,31.12,469,24.92ZM306.17,182.52C302.86,206,239,200.87,239,200.87c-21.09-.87-20.1-16.94-20.1-16.94V150.32l8.27.57c2.37,11.86,9.46,24.85,9.46,24.85,7.1,15.25,20.1,10.81,20.1,10.81l-14.89-45.83c-1.88-11.75,8.51-9.32,8.51-9.32l41.38,1.7C319.67,136.92,306.17,182.52,306.17,182.52Z"/><path class="cls-2" d="M469,24.92a20.54,20.54,0,0,1-4.15-8.06,4.39,4.39,0,0,0-2.69-3.28A45.4,45.4,0,0,1,447.88,5a4.68,4.68,0,0,0-6.52.14,4.92,4.92,0,0,0-1.26,2s-1.24,3.25-6.18,3.25l-359,2.66S65.42.37,59.6,3.49c0,0-4.94,11.47-14.55,11.47,0,0-14-14.94-13.67,35.44,0,0-.21,37.62-4.95,42.05,0,0-7.27,13.9,16.3,15.29,0,0,39.57,10.42,17.75,63.94l-56.21,146C1.42,325,3.51,333.8,9.21,338.27c16.66,13.09,55.14,36,116.14,31.2,4.21-.33,7.92-3.45,9.6-8.07l46.9-128.8c6.91-19,26.87-25.67,40.74-13.3.31.27.62.56.93.85l96.77-4.39s11.08,2.13,7-17c0,0-18.33-67.76,18.33-71.58l103.3-3.48s12.51-1.39,14.55-8.68c0,0,8-25.79,2.08-44.09,0,0,4.46-4.73,6.67-16.52C472.22,54.43,474.93,31.12,469,24.92ZM306.17,182.52C302.86,206,239,200.87,239,200.87c-21.09-.87-20.1-16.94-20.1-16.94V150.32l8.27.57c2.37,11.86,9.46,24.85,9.46,24.85,7.1,15.25,20.1,10.81,20.1,10.81l-14.89-45.83c-1.88-11.75,8.51-9.32,8.51-9.32l41.38,1.7C319.67,136.92,306.17,182.52,306.17,182.52Z"/><path class="cls-3" d="M51.6,280.51,36.68,323.72s-6.07,9.88,10,13.37l36.75,9.82s11.92,3.94,16.48-8.25l59.88-165.39s6.42-12.28-16.06-12.68c0,0-47.87-5.88-50.18.74"/><line class="cls-4" x1="51.6" y1="62.07" x2="58.4" y2="90.96"/><line class="cls-4" x1="67.1" y1="90.96" x2="60.55" y2="62.07"/><line class="cls-4" x1="69.29" y1="61.98" x2="76.1" y2="90.86"/><line class="cls-4" x1="84.79" y1="90.86" x2="78.24" y2="61.98"/><line class="cls-4" x1="86.74" y1="62.55" x2="93.54" y2="91.43"/><line class="cls-4" x1="102.23" y1="91.43" x2="95.68" y2="62.55"/><line class="cls-5" x1="32.96" y1="61.98" x2="470.01" y2="61.98"/><line class="cls-4" x1="217.04" y1="47.16" x2="427.3" y2="47.16"/><line class="cls-4" x1="217.04" y1="32.34" x2="427.3" y2="32.34"/><rect class="cls-3" x="95.68" y="12.9" width="93.51" height="29.09" rx="12" ry="12"/><polygon class="cls-6" points="195.51 10.46 86.73 11.17 86.75 15.17 195.53 14.47 195.51 10.46"/><line class="cls-7" x1="465.72" y1="70.03" x2="471.1" y2="58.21"/></g></g></svg>