<svg xmlns="http://www.w3.org/2000/svg" viewBox="0 0 432.4 454.86"><defs><style>.cls-1{fill:#9a5c4b;}.cls-2{fill:#b9bfc6;}.cls-3,.cls-5,.cls-6{fill:none;stroke-miterlimit:10;}.cls-3{stroke:#8c8b8c;stroke-linecap:round;stroke-width:3px;}.cls-4{fill:#fed800;}.cls-5{stroke:#fed800;stroke-width:20px;}.cls-6{stroke:#472219;}</style></defs><title>adventure</title><g id="Layer_2" data-name="Layer 2"><g id="Layer_1-2" data-name="Layer 1"><polygon class="cls-1" points="394.71 19.52 330.1 97.92 356.99 118.18 415.43 36.17 394.71 19.52"/><path class="cls-2" d="M76.26,450.28l16.9-41.55a46.52,46.52,0,0,1,3.07-6.16l15.29-25.7a239.3,239.3,0,0,1,17-24.88L312.4,116.58l5.81-7.44,15.31,7.58,15.66,15.87-191,248.12q-4.78,6.21-10,12.1l-21.09,23.93a30.4,30.4,0,0,1-4,3.81L80.7,453.64A2.88,2.88,0,0,1,76.26,450.28Z"/><line class="cls-3" x1="111.53" y1="407.08" x2="320.11" y2="136.11"/><ellipse class="cls-4" cx="411.85" cy="18.72" rx="16.95" ry="22.03" transform="translate(163.81 348.03) rotate(-55.62)"/><path class="cls-5" d="M259.91,93.62c56.51-10,110.35,28.05,120.38,85"/><line class="cls-6" x1="340.64" y1="85.23" x2="366.51" y2="104.82"/><line class="cls-6" x1="352.05" y1="71.29" x2="377.05" y2="90.12"/><line class="cls-6" x1="362.92" y1="58.11" x2="386.92" y2="76.19"/><line class="cls-6" x1="373.73" y1="45.06" x2="396.78" y2="62.42"/><line class="cls-6" x1="385.65" y1="30.6" x2="407.61" y2="47.15"/><polygon class="cls-1" points="37.68 20.11 102.29 98.52 75.41 118.78 16.96 36.77 37.68 20.11"/><path class="cls-2" d="M356.14,450.88l-16.9-41.55a45.92,45.92,0,0,0-3.07-6.16l-15.3-25.7a239.21,239.21,0,0,0-17-24.88L120,117.18l-5.81-7.44-15.31,7.58L83.22,133.19l191,248.12q4.77,6.21,10,12.1l21.09,23.93a29.81,29.81,0,0,0,4,3.81l42.35,33.09A2.89,2.89,0,0,0,356.14,450.88Z"/><line class="cls-3" x1="320.86" y1="407.68" x2="112.29" y2="136.71"/><ellipse class="cls-4" cx="20.55" cy="19.32" rx="22.03" ry="16.95" transform="translate(-7.32 14.98) rotate(-34.38)"/><path class="cls-5" d="M172.49,94.22c-56.51-10-110.36,28.05-120.39,85"/><line class="cls-6" x1="91.76" y1="85.83" x2="65.89" y2="105.42"/><line class="cls-6" x1="80.35" y1="71.89" x2="55.35" y2="90.72"/><line class="cls-6" x1="69.48" y1="58.71" x2="45.48" y2="76.79"/><line class="cls-6" x1="58.67" y1="45.66" x2="35.62" y2="63.01"/><line class="cls-6" x1="46.75" y1="31.2" x2="24.79" y2="47.75"/><path class="cls-1" d="M219.53,120.18s54.29,41.28,141.71,25.9V261s.7,122.22-141.71,183.74c0,0-128.66-39.41-140-174.56V147.7S175,155,219.53,120.18Z"/><path class="cls-4" d="M219.71,152.67s43.41,33,113.33,20.72v91.93s.56,97.75-113.33,147c0,0-103.58-32.18-112-139.61v-98S184.06,180.51,219.71,152.67Z"/></g></g></svg>