<svg xmlns="http://www.w3.org/2000/svg" viewBox="0 0 415.29 385.48"><defs><style>.cls-1{fill:#ffd800;}.cls-2{fill:#7c4a3f;}.cls-3{fill:#fff;}.cls-4{fill:#6ba6d9;}</style></defs><title>comedy</title><g id="Layer_2" data-name="Layer 2"><g id="Layer_1-2" data-name="Layer 1"><circle class="cls-1" cx="212.31" cy="192.74" r="192.74"/><path class="cls-2" d="M94,198.82c1.89-8.69,9.67-27,41.75-29.06h0s34.63-.67,45.19,32.24a3.52,3.52,0,0,1-4.82,4.28c-2.06-1-4.69-3.06-8-6.92a31.91,31.91,0,0,0-5-4.75c-7.26-5.48-25.13-15.65-48.33-5.71a34.81,34.81,0,0,0-9.61,6.3,72.18,72.18,0,0,1-7.54,6.1A2.4,2.4,0,0,1,94,198.82Z"/><path class="cls-2" d="M248.09,200.2c1.62-8.75,8.83-27.31,40.84-30.31h0s34.59-1.74,46.14,30.84a3.51,3.51,0,0,1-4.68,4.42c-2.09-1-4.78-2.91-8.17-6.67a30.94,30.94,0,0,0-5.11-4.59c-7.42-5.26-25.59-14.89-48.48-4.24a34.79,34.79,0,0,0-9.41,6.59,73,73,0,0,1-7.35,6.33A2.4,2.4,0,0,1,248.09,200.2Z"/><path class="cls-2" d="M63.56,195.93C60,190.82,55.32,177,79.2,150.15c0,0,26.65-28.33,54.12-23.36,2.5.45,1.58,4.08-1.44,5.76a37.74,37.74,0,0,1-10.08,3.51,40.35,40.35,0,0,0-6.66,2.07c-8.87,3.64-28.77,13.93-41.08,36.82a38.66,38.66,0,0,0-3.83,10.38,71.12,71.12,0,0,1-2.32,8.61C67.21,195.9,64.44,197.17,63.56,195.93Z"/><path class="cls-2" d="M279.66,132c4.5-4.32,17.49-11,47.6,8.6,0,0,32,22.09,31.23,50-.08,2.54-3.8,2.18-5.92-.56a37.64,37.64,0,0,1-5-9.43,42.06,42.06,0,0,0-3-6.28c-4.93-8.22-18.09-26.35-42.56-35.08A39.09,39.09,0,0,0,291.14,137a72.34,72.34,0,0,1-8.87-1C280.23,135.57,278.56,133,279.66,132Z"/><path class="cls-2" d="M90.05,222.59a4.64,4.64,0,0,0-6.4,4.84c3.21,26.75,21.53,110.3,125.13,110.3,0,0,107.94,6.31,125.19-110.25a4.66,4.66,0,0,0-6.87-4.73c-12.53,6.8-43.08,16.86-114.79,17.78C212.31,240.53,138.14,243.06,90.05,222.59Z"/><path class="cls-3" d="M91.66,241,97,259.12a5,5,0,0,0,3.26,3.34c10.11,3.23,49.62,14.69,102.09,14.69,0,0,92.95.24,113.08-12.08a4.76,4.76,0,0,0,1.94-2.43l7.55-20.26a5,5,0,0,0-6.44-6.36c-14.75,5.81-47.36,13.69-115.2,13.22,0,0-70.57-.5-105-14.25A5,5,0,0,0,91.66,241Z"/><path class="cls-4" d="M20.6,245.54,70,206.36a2.86,2.86,0,0,1,4.64,2.24v73s3.82,45.21-50.42,30.93c0,0-35.5-11.58-20.56-45.37A57.27,57.27,0,0,1,20.6,245.54Z"/><path class="cls-4" d="M394.69,243.26l-49.41-39.18a2.86,2.86,0,0,0-4.63,2.24v72.95s-3.82,45.21,50.41,30.93c0,0,35.5-11.58,20.57-45.37A57.3,57.3,0,0,0,394.69,243.26Z"/></g></g></svg>