<svg xmlns="http://www.w3.org/2000/svg" viewBox="0 0 463.31 365.87"><defs><style>.cls-1{fill:#9ba1aa;}.cls-2{fill:none;stroke:#9ba1aa;stroke-miterlimit:10;stroke-width:4px;}.cls-3{fill:#b9bfc6;}</style></defs><title>crime</title><g id="Layer_2" data-name="Layer 2"><g id="Layer_1-2" data-name="Layer 1"><path class="cls-1" d="M116.4,38.82l-10.06-2.3A12.65,12.65,0,0,0,91.23,46L85.44,71.3a12.67,12.67,0,0,0,9.49,15.12L105,88.72a12.66,12.66,0,0,0,15.11-9.49l5.79-25.3A12.66,12.66,0,0,0,116.4,38.82Zm4.83,14.53-5.7,24.89a8.46,8.46,0,0,1-10.11,6.34L96.33,82.5A8.45,8.45,0,0,1,90,72.4l5.69-24.9a8.46,8.46,0,0,1,10.11-6.34l9.09,2.08A8.47,8.47,0,0,1,121.23,53.35Z"/><path class="cls-2" d="M116.4,38.82l-10.06-2.3A12.65,12.65,0,0,0,91.23,46L85.44,71.3a12.67,12.67,0,0,0,9.49,15.12L105,88.72a12.66,12.66,0,0,0,15.11-9.49l5.79-25.3A12.66,12.66,0,0,0,116.4,38.82Zm4.83,14.53-5.7,24.89a8.46,8.46,0,0,1-10.11,6.34L96.33,82.5A8.45,8.45,0,0,1,90,72.4l5.69-24.9a8.46,8.46,0,0,1,10.11-6.34l9.09,2.08A8.47,8.47,0,0,1,121.23,53.35Z"/><path class="cls-1" d="M185.63,20.71l-3.07-9.85a12.65,12.65,0,0,0-15.8-8.29L142,10.3a12.65,12.65,0,0,0-8.29,15.8L136.77,36a12.66,12.66,0,0,0,15.8,8.29l24.77-7.73A12.65,12.65,0,0,0,185.63,20.71ZM175.51,32.19l-24.38,7.6a8.46,8.46,0,0,1-10.57-5.54l-2.78-8.91a8.47,8.47,0,0,1,5.55-10.57l24.37-7.6a8.46,8.46,0,0,1,10.57,5.55l2.78,8.9A8.47,8.47,0,0,1,175.51,32.19Z"/><path class="cls-2" d="M185.63,20.71l-3.07-9.85a12.65,12.65,0,0,0-15.8-8.29L142,10.3a12.65,12.65,0,0,0-8.29,15.8L136.77,36a12.66,12.66,0,0,0,15.8,8.29l24.77-7.73A12.65,12.65,0,0,0,185.63,20.71ZM175.51,32.19l-24.38,7.6a8.46,8.46,0,0,1-10.57-5.54l-2.78-8.91a8.47,8.47,0,0,1,5.55-10.57l24.37-7.6a8.46,8.46,0,0,1,10.57,5.55l2.78,8.9A8.47,8.47,0,0,1,175.51,32.19Z"/><path class="cls-1" d="M245.36,22.06l-24-9.81a12.66,12.66,0,0,0-16.45,6.92L201,28.72a12.66,12.66,0,0,0,6.92,16.45l24,9.8a12.66,12.66,0,0,0,16.46-6.91l3.89-9.55A12.65,12.65,0,0,0,245.36,22.06Zm2.42,15.15-3.52,8.63a8.47,8.47,0,0,1-11,4.63l-23.64-9.65a8.46,8.46,0,0,1-4.63-11l3.52-8.64a8.48,8.48,0,0,1,11-4.62l23.64,9.65A8.45,8.45,0,0,1,247.78,37.21Z"/><path class="cls-2" d="M245.36,22.06l-24-9.81a12.66,12.66,0,0,0-16.45,6.92L201,28.72a12.66,12.66,0,0,0,6.92,16.45l24,9.8a12.66,12.66,0,0,0,16.46-6.91l3.89-9.55A12.65,12.65,0,0,0,245.36,22.06Zm2.42,15.15-3.52,8.63a8.47,8.47,0,0,1-11,4.63l-23.64-9.65a8.46,8.46,0,0,1-4.63-11l3.52-8.64a8.48,8.48,0,0,1,11-4.62l23.64,9.65A8.45,8.45,0,0,1,247.78,37.21Z"/><rect class="cls-1" x="171.58" y="21.63" width="46.57" height="7.83" rx="3.92" ry="3.92" transform="translate(4.06 -21.54) rotate(6.39)"/><rect class="cls-1" x="106.2" y="34.11" width="46.57" height="7.83" rx="3.92" ry="3.92" transform="matrix(0.87, -0.5, 0.5, 0.87, -1.66, 69.83)"/><rect class="cls-1" x="81.8" y="92.59" width="46.57" height="7.83" rx="3.92" ry="3.92" transform="translate(8.57 201.59) rotate(-90)"/><rect class="cls-1" x="234.84" y="45.97" width="46.57" height="7.83" rx="3.92" ry="3.92" transform="translate(59.52 -122.38) rotate(30)"/><path class="cls-3" d="M139.43,112.09H72.24A13.31,13.31,0,0,0,58.93,125.4v40l92.38,3.11V124A11.88,11.88,0,0,0,139.43,112.09Zm-33.76,42.3a7,7,0,0,1-3.85-12.77l-1.66-14.83h11.47l-2.45,14.63a7,7,0,0,1-3.51,13Z"/><path class="cls-3" d="M343.66,73.59,317.2,39.48a13.39,13.39,0,0,0-18.81-2.32L246.69,77.5a13.39,13.39,0,0,0-2.32,18.81l23.37,30.48c4.45,5.69,5.82-2.37,11.67-6.62l53.06-38.61C338.6,77.11,348.32,79.56,343.66,73.59ZM298.85,90.67a7,7,0,0,1-10.78-8L277.67,72l9-7.06L294,78.24a7,7,0,0,1,4.85,12.43Z"/><path class="cls-3" d="M105.67,154.54A105.68,105.68,0,0,0,53.36,352l14.49-24.53a76.44,76.44,0,1,1,7.49,3.71l-13.84,25a105.67,105.67,0,1,0,44.17-201.68Z"/><path class="cls-3" d="M357.65,72.67A105.66,105.66,0,0,0,357,284l-1-27.87a.69.69,0,0,1,.34-.62,77.13,77.13,0,1,1,8-.27l1.8,28.43a105.66,105.66,0,0,0-8.46-211Z"/></g></g></svg>