<svg xmlns="http://www.w3.org/2000/svg" viewBox="0 0 784.01 772.51"><defs><style>.cls-1{fill:#6ba6d9;}.cls-2{fill:#fed800;}.cls-3{fill:#91c95c;}.cls-4{font-size:112.03px;fill:#fff;font-family:AndesRoundedW03-Bold, AndesRoundedW03-Bold;}</style></defs><title>dialogue</title><g id="Layer_2" data-name="Layer 2"><g id="Layer_1-2" data-name="Layer 1"><path class="cls-1" d="M176.75,714.82,51.19,771.38a12.33,12.33,0,0,1-16.11-16.73l40.47-81.52a12.32,12.32,0,0,1,17-5.28l84.15,47"/><ellipse class="cls-1" cx="273.77" cy="512.12" rx="273.77" ry="223.95"/><ellipse class="cls-2" cx="510.24" cy="223.95" rx="273.77" ry="223.95"/><path class="cls-2" d="M749.9,478l-44.25-97a8,8,0,0,0-11.11-3.74l-74.49,40a8,8,0,0,0,.33,14.31l118.75,57A8,8,0,0,0,749.9,478Z"/><path class="cls-3" d="M248.26,289.13s52.43,172.06,287.5,157.8C535.76,446.93,481.94,271.57,248.26,289.13Z"/><text></text><text class="cls-4" transform="translate(62.54 560.88)">Dialogue</text></g></g></svg>