<svg xmlns="http://www.w3.org/2000/svg" viewBox="0 0 514.27 357.69"><defs><style>.cls-1{fill:#9a5c4b;}.cls-2{fill:#fed800;}</style></defs><title>drama</title><g id="Layer_2" data-name="Layer 2"><g id="Layer_1-2" data-name="Layer 1"><path class="cls-1" d="M257.27,0s-102.7,280.51,75.81,326c0,0,149.76,32,181.19-282.58C514.27,43.41,396,52.45,257.27,0Zm7.06,87.57c2,1.13,4.47,3.28,7.48,7.17a31.54,31.54,0,0,0,4.75,5c7,5.8,24.39,16.78,48,7.89a34.59,34.59,0,0,0,9.89-5.85A71.92,71.92,0,0,1,342.27,96a2.41,2.41,0,0,1,3.59,2.66c-2.28,8.59-10.88,26.56-43,27.12,0,0-34.62-.89-43.67-34.24A3.52,3.52,0,0,1,264.33,87.57ZM399,272.48c-3.09-2.27-6.8-6.35-11-13.43a52.58,52.58,0,0,0-6.94-9.23c-10.54-11.06-37.36-32.77-78.49-22.62A58.36,58.36,0,0,0,284.84,235a122.21,122.21,0,0,1-14.15,8.06,4,4,0,0,1-5.47-5.13c5.5-13.88,23.38-42.13,77.07-36.75,0,0,57.54,8.31,66.06,65.69A5.91,5.91,0,0,1,399,272.48Zm78.38-147.69c-2.28,8.6-10.88,26.56-43,27.13,0,0-34.62-.89-43.67-34.25a3.53,3.53,0,0,1,5.17-4c2,1.13,4.47,3.29,7.48,7.18a31.09,31.09,0,0,0,4.75,5c7,5.8,24.39,16.77,48,7.89a34.82,34.82,0,0,0,9.89-5.85,72.78,72.78,0,0,1,7.8-5.76A2.41,2.41,0,0,1,477.34,124.79Z"/><path class="cls-2" d="M255.74,28.27S148.27,78.57,0,78.57c0,0,3.17,298.7,186.22,278.1C186.22,356.67,337.61,333.62,255.74,28.27ZM58.31,166.61a34.8,34.8,0,0,0-8.51,7.73,71.4,71.4,0,0,1-6.48,7.2,2.41,2.41,0,0,1-4.06-1.87c.5-8.88,5.31-28.21,36.69-35.23,0,0,34.08-6.09,49.66,24.75a3.52,3.52,0,0,1-4.26,4.93c-2.17-.71-5-2.31-8.76-5.52a31.4,31.4,0,0,0-5.66-3.92C98.9,160.41,79.66,153.16,58.31,166.61ZM182.5,293.8s-54,21.46-90-24.05a5.92,5.92,0,0,1,5.36-9.54c3.81.44,9.06,2.12,16.27,6.14a51.82,51.82,0,0,0,10.62,4.55c14.64,4.34,48.72,9.81,79.32-19.49a58.44,58.44,0,0,0,11.41-15.56,121.25,121.25,0,0,1,8.24-14,4,4,0,0,1,7.3,1.73C233.17,238.31,231.74,271.72,182.5,293.8ZM255.39,149c-2.18-.7-5-2.31-8.77-5.52a31.4,31.4,0,0,0-5.66-3.92c-8-4.27-27.27-11.52-48.62,1.93a35,35,0,0,0-8.51,7.73,72.59,72.59,0,0,1-6.48,7.21,2.41,2.41,0,0,1-4.06-1.88c.51-8.88,5.32-28.2,36.69-35.23,0,0,34.09-6.09,49.67,24.76A3.52,3.52,0,0,1,255.39,149Z"/></g></g></svg>