<svg xmlns="http://www.w3.org/2000/svg" viewBox="0 0 512.24 440.98"><defs><style>.cls-1{fill:#6ba6d9;}</style></defs><title>family</title><g id="Layer_2" data-name="Layer 2"><g id="Layer_1-2" data-name="Layer 1"><circle class="cls-1" cx="104.94" cy="35.15" r="35.15"/><circle class="cls-1" cx="407.76" cy="35.5" r="35.15"/><circle class="cls-1" cx="256.46" cy="249.75" r="20.91"/><path class="cls-1" d="M104.94,82.6s-48.78-2.21-57.86,31.84a2.8,2.8,0,0,1-.13.41L.34,233.23a4.21,4.21,0,0,0-.29,1.2c-.17,2.07-.21,8.29,5.45,9.61,0,0,6.82,4.09,12.05-5.68l37.66-74.82a4.33,4.33,0,0,1,8.15,2.63L43.81,288.35a4.34,4.34,0,0,0,4.28,5H63.22a4.34,4.34,0,0,1,4.33,4.1L74.81,435a4.35,4.35,0,0,0,.17,1c.47,1.44,2.22,4.93,8.39,4.92,2.52,0,6.85-.59,8.17-5.11a4.36,4.36,0,0,0,.14-.88L100,297.21a4.34,4.34,0,0,1,4.33-4.07h0a4.34,4.34,0,0,1,4.33,4.1l7.48,136.23a4.2,4.2,0,0,0,.15.92c.48,1.67,2.48,6.64,9.51,6.29,6.52-.33,7.8-1.74,8.09-6.61l7.72-136.8a4.34,4.34,0,0,1,4.37-4.09l15,.14a4.33,4.33,0,0,0,4.32-5L146,167.84a4.34,4.34,0,0,1,8.16-2.63L190.84,239a5,5,0,0,0,.38.63c1.13,1.54,6.11,7.59,12.49,4.2,0,0,5.35-1.07,5.26-8.8a4.21,4.21,0,0,0-.3-1.44L160.3,108.34S151.21,83.56,104.94,82.6Z"/><path class="cls-1" d="M361.9,429.33S362.63,441,375.22,441c5.67,0,12.7-.62,14.36-7.8a2,2,0,0,0,.05-.24l16.55-158.31a1.69,1.69,0,0,1,3.36,0l2.2,18.54,14.63,139.29,0,.2c.23,1,2.49,9.1,14.37,7.72,6.48-.75,13-5.62,13.32-10.49l-4.26-134.29.08-148.71a1.69,1.69,0,0,1,3.24-.68l41,92.95a1.61,1.61,0,0,0,.17.28c.77,1.11,5.93,8,12.63,4.4,0,0,5.56-1.11,5.24-9.28a1.78,1.78,0,0,0-.1-.51L468.67,108a1.58,1.58,0,0,0-.16-.35c-1.37-2.16-16.31-24.17-60.3-25.08,0,0-53.9-3.45-62.88,30.77a.36.36,0,0,1,0,.1L303.46,233.6a1.4,1.4,0,0,0-.08.34c-.17,1.25-.84,8.65,5.39,10.1,0,0,6.79,4.07,12-5.62l.06-.13,41.58-91.55a1.69,1.69,0,0,1,3.23.7l.51,145.93-4.27,136"/><path class="cls-1" d="M230.77,435.16s.41,5.82,7.49,5.82c3.21,0,7.19-.31,8.1-4l9.75-82.85a.49.49,0,0,1,1,0l1.73,12.9L267,436.73a.11.11,0,0,0,0,0c.08.35,1.26,4.59,8.09,3.89,3.64-.38,7.33-2.81,7.49-5.25l-2.3-64.53c-.07-1.74-.06-3.49,0-5.23L283,308.15a12.4,12.4,0,0,1,5.46-9.71l7.18-4.83A46.66,46.66,0,0,0,307.4,282.3L330,251.1s3.57-4.49.4-8c0,0-3.58-4.93-7.06-.76L303,264.13a33.24,33.24,0,0,1-6.36,5.29l-11.12,7.12a21.68,21.68,0,0,1-15.2,3.12h0a78.93,78.93,0,0,0-24.45-.17c-8,1.19-18.65,1.73-24.36-2.26l-.09-.07-33.5-35a.71.71,0,0,0-.14-.1,5.43,5.43,0,0,0-5.51.81s-3.1,1.33-.92,6.81a.31.31,0,0,0,0,.1l15.73,24a31.9,31.9,0,0,0,3.19,4.12l3.18,3.52A91,91,0,0,0,223.53,298h0a13.85,13.85,0,0,1,6.62,11.57l1.07,59.83-.45,65.75"/></g></g></svg>