<svg xmlns="http://www.w3.org/2000/svg" viewBox="0 0 376.3 186.98"><defs><style>.cls-1{fill:#fed800;}.cls-1,.cls-2,.cls-3,.cls-4{stroke:#fff;stroke-miterlimit:10;stroke-width:6px;}.cls-2{fill:#ea8039;}.cls-3{fill:#91c95c;}.cls-4{fill:#ce3741;}.cls-5{font-size:16px;font-family:AndesRoundedW03-Bold, AndesRoundedW03-Bold;}.cls-6{letter-spacing:-0.02em;}.cls-7{letter-spacing:0em;}.cls-8{letter-spacing:-0.01em;}.cls-9{letter-spacing:-0.02em;}.cls-10{letter-spacing:-0.01em;}.cls-11{letter-spacing:-0.02em;}.cls-12{letter-spacing:0em;}.cls-13{letter-spacing:0em;}</style></defs><title>gauge</title><g id="Layer_2" data-name="Layer 2"><g id="Layer_1-2" data-name="Layer 1"><path class="cls-1" d="M186.77,3.11s82-5.79,139.51,66.26L186.77,179.82"/><path class="cls-2" d="M47.25,69.37,182.73,181.72a2.47,2.47,0,0,0,4-1.9V3.11S104.72-2.68,47.25,69.37Z"/><path class="cls-3" d="M186.77,182.29,372.86,184C359.61,86.07,314.08,58,314.08,58Z"/><path class="cls-4" d="M183.57,182.29H3.32C12.1,95,56,60.31,56,60.31l128.45,119.8A1.26,1.26,0,0,1,183.57,182.29Z"/><text class="cls-5" transform="translate(99.29 51.15)">p<tspan class="cls-6" x="9.1" y="0">r</tspan><tspan class="cls-7" x="15.42" y="0">obab</tspan><tspan class="cls-8" x="49.94" y="0">l</tspan><tspan class="cls-9" x="54.09" y="0">y</tspan><tspan class="cls-7" x="62.33" y="0"> </tspan><tspan x="6.31" y="19.2">n</tspan><tspan class="cls-10" x="15.43" y="19.2">o</tspan><tspan x="23.74" y="19.2">t</tspan><tspan class="cls-9" x="30.7" y="19.2"> </tspan><tspan class="cls-11" x="33.88" y="19.2">y</tspan><tspan x="42.18" y="19.2">ou</tspan></text><text class="cls-5" transform="translate(206.01 51.15)">p<tspan class="cls-6" x="9.1" y="0">r</tspan><tspan class="cls-7" x="15.42" y="0">obab</tspan><tspan class="cls-8" x="49.94" y="0">l</tspan><tspan class="cls-9" x="54.09" y="0">y</tspan><tspan class="cls-7" x="62.33" y="0"> </tspan><tspan class="cls-11"><tspan x="20.1" y="19.2">y</tspan><tspan class="cls-7" x="28.4" y="19.2">ou</tspan></tspan></text><text class="cls-5" transform="translate(274.62 139.82)">d<tspan class="cls-12" x="9.1" y="0">e</tspan><tspan x="17.18" y="0">fin</tspan><tspan class="cls-13" x="36.67" y="0">i</tspan><tspan x="40.86" y="0">te</tspan><tspan class="cls-8" x="55.95" y="0">l</tspan><tspan class="cls-9" x="60.11" y="0">y</tspan><tspan class="cls-11"><tspan x="21.34" y="19.2">y</tspan><tspan class="cls-7" x="29.65" y="19.2">ou</tspan></tspan></text><text class="cls-5" transform="translate(36.73 139.82)">d<tspan class="cls-12" x="9.1" y="0">e</tspan><tspan x="17.18" y="0">fin</tspan><tspan class="cls-13" x="36.67" y="0">i</tspan><tspan x="40.86" y="0">te</tspan><tspan class="cls-8" x="55.95" y="0">l</tspan><tspan class="cls-9" x="60.11" y="0">y</tspan><tspan x="7.56" y="19.2">n</tspan><tspan class="cls-10" x="16.68" y="19.2">o</tspan><tspan x="24.98" y="19.2">t</tspan><tspan class="cls-9" x="31.94" y="19.2"> </tspan><tspan class="cls-11" x="35.13" y="19.2">y</tspan><tspan x="43.43" y="19.2">ou</tspan></text><path d="M172.88,109.92l-26.67,11.35a3.33,3.33,0,0,1-4.61-3.47L145.1,89a3.34,3.34,0,0,1,5.32-2.26l23.15,17.42A3.33,3.33,0,0,1,172.88,109.92Z"/><rect x="164.84" y="101.66" width="15.07" height="84.78" rx="7.53" ry="7.53" transform="translate(-42.65 79.01) rotate(-23.06)"/></g></g></svg>