<svg xmlns="http://www.w3.org/2000/svg" viewBox="0 0 347.17 419.71"><defs><style>.cls-1{fill:#bab9ba;}.cls-2{fill:#eaeef8;}.cls-3{fill:#05243c;}</style></defs><title>horror</title><g id="Layer_2" data-name="Layer 2"><g id="Layer_1-2" data-name="Layer 1"><path class="cls-1" d="M8.27,376.91s2.57,38.09,27,14.16l21.88-23.81S71,357,79.23,379.49c0,0,5.3,23.62,7.56,27,1.79,2.68,10.3,30.9,36.69-4.5,0,0,18.07-34.66,42.79-37.55,0,0,11.29-3.19,21.74,23.68a47.91,47.91,0,0,0,8.35,14.13c7.22,8.3,19.13,16.46,29.25-2.85a52.71,52.71,0,0,0,5.33-16.54c1.47-9.59,6.12-29.92,19.34-32.37,0,0,13.52-1.29,27,25.11,0,0,18,23.81,23.17-15.45,0,0-3.22-37.34,27-20.6,0,0,32.19,16.09,14.16-18,0,0-51.8-70.4-57.28-119.08l-20-112.64S253.93,23,162.1,26.11c0,0-53.27,3.62-80.42,46.38a88.92,88.92,0,0,0-13.12,38.58c-3.06,29.61-14.78,124.7-43,169.34-5.16,8.17-13.45,25.63-15.38,35.1C6.49,333.79,3.56,339.7,8.27,376.91Z"/><path class="cls-2" d="M2.44,350.9S5,389,29.47,365.06l21.88-23.81S65.2,331,73.4,353.48c0,0,5.3,23.62,7.56,27,1.79,2.68,10.3,30.9,36.69-4.5,0,0,18.07-34.66,42.79-37.55,0,0,11.29-3.19,21.74,23.68a47.91,47.91,0,0,0,8.35,14.13c7.22,8.3,19.13,16.46,29.25-2.85a52.63,52.63,0,0,0,5.33-16.54c1.47-9.59,6.12-29.92,19.34-32.37,0,0,13.52-1.28,27,25.11,0,0,18,23.81,23.17-15.45,0,0-3.22-37.33,27-20.6,0,0,32.19,16.09,14.16-18,0,0-51.8-70.4-57.28-119.08l-20-112.64S248.1-3,156.27.1c0,0-53.27,3.62-80.42,46.38A88.92,88.92,0,0,0,62.73,85.06c-3.06,29.62-14.78,124.7-43,169.34C14.59,262.57,6.3,280,4.37,289.5.66,307.78-2.27,313.69,2.44,350.9Z"/><circle class="cls-3" cx="161.42" cy="192.97" r="32.18"/><ellipse class="cls-3" cx="133.93" cy="111.14" rx="12.87" ry="20.92"/><ellipse class="cls-3" cx="187.37" cy="111.14" rx="12.87" ry="20.92"/></g></g></svg>