<svg xmlns="http://www.w3.org/2000/svg" viewBox="0 0 308.83 292.02"><defs><style>.cls-1{fill:#ddc665;}.cls-2{fill:#fed800;}</style></defs><title>mystery</title><g id="Layer_2" data-name="Layer 2"><g id="Layer_1-2" data-name="Layer 1"><line class="cls-1" x1="116.03" y1="159.91" x2="135.08" y2="179.2"/><path class="cls-2" d="M120.41,158.92,8.53,251.6c-5.87,4.85-10,12.38-8,19.72,1.86,6.77,7.88,14.74,18.15,19.43A14,14,0,0,0,34.33,288L139.8,183.06Z"/><path class="cls-2" d="M233.86,4.55a105.51,105.51,0,1,0,70.42,131.54A105.5,105.5,0,0,0,233.86,4.55ZM284.21,130a84.53,84.53,0,1,1-56.42-105.4A84.53,84.53,0,0,1,284.21,130Z"/><rect class="cls-2" x="100.37" y="166.33" width="38.4" height="29.07" rx="8.42" ry="8.42" transform="translate(-91.76 132.4) rotate(-43.62)"/></g></g></svg>