<svg xmlns="http://www.w3.org/2000/svg" viewBox="0 0 435.18 490.02"><defs><style>.cls-1{fill:#91c95c;stroke-width:5px;}.cls-1,.cls-3{stroke:#000;stroke-miterlimit:10;}.cls-2,.cls-3{fill:#fff;}.cls-3{stroke-linecap:round;stroke-width:6px;}</style></defs><title>sci-fi</title><g id="Layer_2" data-name="Layer 2"><g id="Layer_1-2" data-name="Layer 1"><path class="cls-1" d="M222.1,2.53S-10.67-4.54,3.09,200.27c0,0-7,163.69,178.69,277.8a64.09,64.09,0,0,0,67.59-.36C307,441.59,425.31,353.32,432.2,200.27,432.2,200.27,452.83,7.37,222.1,2.53Z"/><path class="cls-2" d="M257.49,295.55c-7,0-12.25-.44-14.79-.7a5.36,5.36,0,0,1-4.8-5.49c1.51-46.59,17.73-80.39,48.23-100.47,25.15-16.55,54.53-20,74.76-20,5.08,0,10.06.22,14.82.65a9.53,9.53,0,0,1,8.62,10.14c-8,104.6-91.35,115.9-126.83,115.9Z"/><path d="M360.89,171.86c5.95,0,10.95.31,14.55.64a6.49,6.49,0,0,1,5.9,6.92C373.57,281.21,293,292.55,257.49,292.55c-6.69,0-11.78-.41-14.48-.68a2.36,2.36,0,0,1-2.12-2.41c3.39-104.7,81.64-117.6,120-117.6m0-6c-20.64,0-50.64,3.56-76.41,20.53-31.36,20.64-48,55.25-49.58,102.87a8.38,8.38,0,0,0,7.5,8.58c3.17.32,8.36.71,15.09.71,20,0,49.29-3.35,75.45-19.27a105.14,105.14,0,0,0,35.91-36.16c10.38-17.34,16.59-38.62,18.47-63.24A12.54,12.54,0,0,0,376,166.52c-4.85-.44-9.92-.66-15.09-.66Z"/><path class="cls-3" d="M199.69,293.76s-.05-135.84-134.3-120.19a6,6,0,0,0-5.27,6.51c2.45,25.74,19.75,128.1,139.57,113.68"/><rect x="182.83" y="378.58" width="64.36" height="21.15" rx="10.58" ry="10.58"/></g></g></svg>