<svg xmlns="http://www.w3.org/2000/svg" viewBox="0 0 532.04 532.04"><defs><style>.cls-1{fill:#f15c22;}.cls-1,.cls-2{stroke:#000;stroke-miterlimit:10;stroke-width:6px;}.cls-2{fill:none;stroke-linecap:round;}</style></defs><title>Asset 6</title><g id="Layer_2" data-name="Layer 2"><g id="Layer_1-2" data-name="Layer 1"><circle class="cls-1" cx="266.02" cy="266.02" r="263.02"/><path class="cls-2" d="M13.06,192.74s53.78-36.58,255-20.27c0,0,119.82,6,260.81,104.15"/><path class="cls-2" d="M83.92,81.21s29,63.6-49.81,227.92c0,0-2.86,8.48-18.52,30.71"/><path class="cls-2" d="M200,519.08s-24.83-6.16-55.71-97.39c0,0-34.91-131.22-10.84-271.46,0,0,18.72-101.72,90.34-143.85"/><path class="cls-2" d="M427.66,58.51S302.12,37.12,232.74,93.05c0,0-70.42,48.15-34.31,149.27,0,0,60.09,154.39,238.16,223.93"/></g></g></svg>