<svg xmlns="http://www.w3.org/2000/svg" viewBox="0 0 371.66 344.67"><defs><style>.cls-1{fill:#bad28d;}.cls-2{fill:#5a8c4e;}.cls-3{fill:#8cb549;}</style></defs><title>war</title><g id="Layer_2" data-name="Layer 2"><g id="Layer_1-2" data-name="Layer 1"><path class="cls-1" d="M127.47,78.4l27.31-23.82A87,87,0,0,1,172,42.9l18.1-9.31A1.66,1.66,0,0,1,192.25,36l-7.43,11.65A103.42,103.42,0,0,1,165.59,70L139.75,92.49Z"/><path class="cls-2" d="M5.72,211.39l34.43,39.48a23.26,23.26,0,0,0,28.09,5.42l33.38-17.05a23.25,23.25,0,0,0,11.06-12.19l1.18-3a23.25,23.25,0,0,0-14.38-30.59L33.16,171.7a23.23,23.23,0,0,0-22.52,4.57L8,178.6A23.24,23.24,0,0,0,5.72,211.39Z"/><path class="cls-2" d="M87.9,298.27l32.72,37.53a25.87,25.87,0,0,0,36.51,2.49l1.82-1.58a25.89,25.89,0,0,0,8.26-25.12L152.87,247.1a25.87,25.87,0,0,0-32.53-19.22l-.51.15a25.88,25.88,0,0,0-14,10.09l-19.69,28.4A25.88,25.88,0,0,0,87.9,298.27Z"/><path class="cls-1" d="M258.6,226.7l27.31-23.82a87,87,0,0,1,17.21-11.68l18.1-9.31a1.66,1.66,0,0,1,2.16,2.37L316,195.91a103.42,103.42,0,0,1-19.23,22.34l-25.84,22.53Z"/><path class="cls-2" d="M35.34,82.19,246.86,324.1a20.55,20.55,0,0,0,29,2h0a20.53,20.53,0,0,0,7-17.3L265.43,113.15A20.55,20.55,0,0,0,249.76,95L55.83,48.49A20.54,20.54,0,0,0,37.54,53l-.23.19A20.55,20.55,0,0,0,35.34,82.19Z"/><path class="cls-3" d="M314.54,18.75a165.24,165.24,0,0,0-36.21,19.87c-36.09,26.16-121,89.62-183.79,151.91,0,0-48.34,47.2-32.61,80.12a8.08,8.08,0,0,0,2.83,3.3c10.61,6.95,68,25.8,257.15-180.64a178.92,178.92,0,0,0,27.27-39.25L370.73,12A8.19,8.19,0,0,0,360.43.6Z"/><rect class="cls-2" x="30.43" y="238.97" width="118.02" height="21.64" rx="7.17" ry="7.17" transform="translate(-142.13 120.31) rotate(-41.09)"/><rect class="cls-1" x="240.91" y="64.07" width="73.92" height="39.56" rx="19.78" ry="19.78" transform="translate(13.34 203.28) rotate(-41.09)"/></g></g></svg>