<svg xmlns="http://www.w3.org/2000/svg" viewBox="0 0 397.62 301.5"><defs><style>.cls-1{fill:#b67445;}.cls-1,.cls-2,.cls-3{stroke:#000;stroke-miterlimit:10;stroke-width:5px;}.cls-2{fill:none;stroke-linecap:round;}.cls-3{fill:#fadcb8;}</style></defs><title>western</title><g id="Layer_2" data-name="Layer 2"><g id="Layer_1-2" data-name="Layer 1"><path class="cls-1" d="M117.05,286C209,179.22,277.34,142.18,306,131.57c10.94-4,12.25-15.2,12.1-27.71-.6-48-15-74-15-74C294.37,6.38,259.7,12.9,259.7,12.9c-32.71,7.89-51.54,7.73-61.55,6.23A24.49,24.49,0,0,1,185,12.75C172.5,1,158.53,2.57,158.53,2.57c-34.31,3.83-50.92,47.78-57.95,74.87C97.64,88.77,88.73,97.3,78,98.53c-61.52,7-73.76,88.52-73.76,88.52-12.7,86.32,47.27,106.89,68.52,111.44a24.07,24.07,0,0,0,13.22-1l18.85-6.79C109.07,289.21,114,289.53,117.05,286Z"/><path class="cls-2" d="M163.9,51.12s12.23-26.67,48.67-31.2"/><path class="cls-2" d="M295.12,229.64s40.54-16.64,67.14-14.33"/><path class="cls-2" d="M29.81,205.62s37.31-21,52.69-26.24"/><path class="cls-3" d="M91.51,128.5l-5.59,30.28S111,179.56,216.16,184.51l9.23-6.95,41.14-27S157.65,152.15,91.51,128.5Z"/><path class="cls-2" d="M100.58,77.44,82.91,177a3.66,3.66,0,0,0,1.54,3.74c7.25,4.65,36.14,19.7,108.67,22.2"/><path class="cls-1" d="M114.64,287.9c-2.07.52-4.39,1.49-2.93-.21C250.6,124.88,335.17,122.5,354.53,126.23a20.69,20.69,0,0,1,7.75,3.26c28.7,19.68,33.24,50.8,32.82,70.55-.27,12.19-8.09,22.79-19,25.73-21.38,5.77-42.27,8.07-56.14,7.82-3.87-.08-16.39-2.66-20.18-3.41-20.59-4-68.73,13.6-68.73,13.6L124.38,283.7Z"/><path class="cls-2" d="M295.12,229.64s32.71-21.53,53.77-15.76"/></g></g></svg>