<svg xmlns="http://www.w3.org/2000/svg" viewBox="0 0 801.05 526.18"><defs><style>.cls-1{fill:#8d8d8e;}.cls-2,.cls-7{fill:none;}.cls-2{stroke:#000;stroke-width:6px;}.cls-2,.cls-4,.cls-5,.cls-7{stroke-miterlimit:10;}.cls-3,.cls-4,.cls-5{fill:#565656;}.cls-4,.cls-5{stroke:#565656;stroke-width:5px;}.cls-4{stroke-linecap:round;}.cls-6{fill:#231f20;}.cls-7{stroke:#231f20;stroke-width:4px;}</style></defs><title>action</title><g id="Layer_2" data-name="Layer 2"><g id="Layer_1-2" data-name="Layer 1"><path class="cls-1" d="M797,75.87s4.6-33-5.44-41.81c0,0-5.36-5.07-7-11.42A6.6,6.6,0,0,0,780,18,81.72,81.72,0,0,1,755.81,5.88a9,9,0,0,0-11,.19A7,7,0,0,0,742.64,9s-2.09,4.6-10.45,4.6L124.67,17.33S108.63-.73,98.78,3.7c0,0-8.37,16.25-24.62,16.25,0,0-23.63-21.17-23.14,50.22,0,0-.35,53.3-8.37,59.58,0,0-12.31,19.69,27.57,21.66,0,0,67,14.77,30,90.6L5.14,448.81a23.33,23.33,0,0,0,8.36,29.25c28.2,18.54,93.32,51,196.54,44.2a19.09,19.09,0,0,0,16.24-11.43l79.37-182.5c11.68-26.86,45.47-36.37,68.94-18.85.52.39,1.05.8,1.57,1.21l163.76-6.22s18.73,3,11.84-24.06c0,0-31-96,31-101.43l174.79-4.92s21.17-2,24.62-12.31c0,0,13.55-36.54,3.52-62.47C785.71,99.28,793.27,92.57,797,75.87ZM516,257.36c-5.6,33.21-113.64,26-113.64,26-35.67-1.23-34-24-34-24V211.75l14,.8c4,16.8,16,35.21,16,35.21,12,21.61,34,15.32,34,15.32l-25.2-64.94c-3.18-16.65,14.4-13.2,14.4-13.2l70,2.4C538.86,192.76,516,257.36,516,257.36Z"/><path class="cls-2" d="M797,75.87s4.6-33-5.44-41.81c0,0-5.36-5.07-7-11.42A6.6,6.6,0,0,0,780,18,81.72,81.72,0,0,1,755.81,5.88a9,9,0,0,0-11,.19A7,7,0,0,0,742.64,9s-2.09,4.6-10.45,4.6L124.67,17.33S108.63-.73,98.78,3.7c0,0-8.37,16.25-24.62,16.25,0,0-23.63-21.17-23.14,50.22,0,0-.35,53.3-8.37,59.58,0,0-12.31,19.69,27.57,21.66,0,0,67,14.77,30,90.6L5.14,448.81a23.33,23.33,0,0,0,8.36,29.25c28.2,18.54,93.32,51,196.54,44.2a19.09,19.09,0,0,0,16.24-11.43l79.37-182.5c11.68-26.86,45.47-36.37,68.94-18.85.52.39,1.05.8,1.57,1.21l163.76-6.22s18.73,3,11.84-24.06c0,0-31-96,31-101.43l174.79-4.92s21.17-2,24.62-12.31c0,0,13.55-36.54,3.52-62.47C785.71,99.28,793.27,92.57,797,75.87ZM516,257.36c-5.6,33.21-113.64,26-113.64,26-35.67-1.23-34-24-34-24V211.75l14,.8c4,16.8,16,35.21,16,35.21,12,21.61,34,15.32,34,15.32l-25.2-64.94c-3.18-16.65,14.4-13.2,14.4-13.2l70,2.4C538.86,192.76,516,257.36,516,257.36Z"/><path class="cls-3" d="M85.24,396.22,60,457.45s-10.27,14,16.91,18.93l62.19,13.93s20.16,5.57,27.89-11.7L268.3,244.26s10.87-17.4-27.17-18c0,0-81-8.33-84.92,1"/><line class="cls-4" x1="85.24" y1="86.7" x2="96.75" y2="127.63"/><line class="cls-4" x1="111.46" y1="127.63" x2="100.38" y2="86.7"/><line class="cls-4" x1="115.18" y1="86.57" x2="126.69" y2="127.5"/><line class="cls-4" x1="141.4" y1="127.5" x2="130.32" y2="86.57"/><line class="cls-4" x1="144.7" y1="87.38" x2="156.21" y2="128.31"/><line class="cls-4" x1="170.92" y1="128.31" x2="159.84" y2="87.38"/><line class="cls-5" x1="53.7" y1="86.57" x2="793.27" y2="86.57"/><line class="cls-4" x1="365.2" y1="65.57" x2="720.99" y2="65.57"/><line class="cls-4" x1="365.2" y1="44.57" x2="720.99" y2="44.57"/><rect class="cls-3" x="159.84" y="17.03" width="158.24" height="41.23" rx="12" ry="12"/><rect class="cls-6" x="144.7" y="14.07" width="184.08" height="5.67" transform="translate(-0.09 1.29) rotate(-0.31)"/><line class="cls-7" x1="786.01" y1="97.97" x2="795.11" y2="81.23"/></g></g></svg>