<svg xmlns="http://www.w3.org/2000/svg" viewBox="0 0 795.05 520.18"><defs><style>.cls-1{fill:#845ea8;}.cls-2,.cls-3{fill:#a593c6;}.cls-3{stroke:#a593c6;stroke-linecap:round;stroke-miterlimit:10;stroke-width:5px;}</style></defs><title>Asset 20</title><g id="Layer_2" data-name="Layer 2"><g id="Layer_1-2" data-name="Layer 1"><path class="cls-1" d="M788.56,31.06s-5.36-5.07-7-11.42A6.6,6.6,0,0,0,777,15,81.72,81.72,0,0,1,752.81,2.88a9,9,0,0,0-11,.19A7,7,0,0,0,739.64,6s-2.09,4.6-10.45,4.6L121.67,14.33S105.63-3.73,95.78.7C95.78.7,87.41,17,71.16,17c0,0-23.63-21.17-23.14,50.22,0,0,0,58.59-8.37,59.58,0,0-12.31,19.69,27.57,21.66,0,0,67,14.77,30,90.6L2.14,445.81a23.33,23.33,0,0,0,8.36,29.25c28.2,18.54,93.32,51,196.54,44.2a19.09,19.09,0,0,0,16.24-11.43l79.37-182.5c11.68-26.86,45.47-36.37,68.94-18.85.52.39,1.05.8,1.57,1.21l163.76-6.22s18.73,3,11.84-24.06c0,0-31-96,31-101.43l174.79-4.92s21.17-2,24.62-12.31c0,0,13.55-36.54,3.52-62.47,0,0,12.12-7.1,11.29-23.41C794,72.87,798.6,39.84,788.56,31.06ZM513,254.36c-5.6,33.21-113.64,26-113.64,26-35.67-1.23-34-24-34-24V208.75l14,.8c4,16.8,16,35.21,16,35.21,12,21.61,34,15.32,34,15.32l-25.2-64.94c-3.18-16.65,14.4-13.2,14.4-13.2l70,2.4C535.86,189.76,513,254.36,513,254.36Z"/><path class="cls-2" d="M82.24,393.22,57,454.45s-10.27,14,16.91,18.93l62.19,13.93s20.16,5.57,27.89-11.7L265.3,241.26s10.87-17.4-27.17-18c0,0-81-8.33-84.92,1"/><line class="cls-3" x1="82.24" y1="83.7" x2="93.75" y2="124.63"/><line class="cls-3" x1="108.46" y1="124.63" x2="97.38" y2="83.7"/><line class="cls-3" x1="112.18" y1="83.57" x2="123.69" y2="124.5"/><line class="cls-3" x1="138.4" y1="124.5" x2="127.32" y2="83.57"/><line class="cls-3" x1="141.7" y1="84.38" x2="153.21" y2="125.31"/><line class="cls-3" x1="167.92" y1="125.31" x2="156.84" y2="84.38"/><line class="cls-3" x1="47.67" y1="83.57" x2="790.27" y2="83.57"/><line class="cls-3" x1="362.2" y1="62.57" x2="717.99" y2="62.57"/><line class="cls-3" x1="362.2" y1="41.57" x2="717.99" y2="41.57"/><rect class="cls-2" x="156.84" y="11.59" width="158.24" height="43.67" rx="12" ry="12"/></g></g></svg>