<svg xmlns="http://www.w3.org/2000/svg" viewBox="0 0 883.38 645.31"><defs><style>.cls-1{fill:#b71f24;}.cls-2{fill:#ffd800;}</style></defs><title>action_2</title><g id="Layer_2" data-name="Layer 2"><g id="Layer_1-2" data-name="Layer 1"><polygon class="cls-1" points="55.62 179.27 12.68 186.3 68.97 286.19 5.55 306.8 79.28 376.57 0 471.7 135.56 470.11 154.59 556.52 275.09 508.96 279.06 645.32 356.75 512.92 455.73 585.29 528.36 438.95 617.94 534.56 619.95 434.93 778.63 448.59 724.8 324.46 814.97 324.46 762.64 224.35 822.1 161.72 688.12 114.95 696.85 14.27 549.39 89.58 524.02 26.95 455.73 91.17 359.13 0 302.05 124.47 232.28 95.19 201.36 172.03 12.68 131.6 55.62 179.27"/><path class="cls-2" d="M80.86,563.66l58.67-23L129.22,440s118-40.92,121.92-161.42c0,0,7.86-99.29-111.61-75.62L50.74,222.32Z"/><polygon class="cls-2" points="468.53 126.05 456.63 431.27 534.33 427.3 575.55 327.41 575.55 418.58 666.65 416.69 780.09 102.27 707.94 102.27 645.32 283.02 653.24 130.01 577.14 130.81 530.36 297.29 541 125.54 468.53 126.05"/><polygon class="cls-2" points="818.45 140.99 732.53 318.81 786.31 331.19 883.38 159.35 818.45 140.99"/><ellipse class="cls-2" cx="356.28" cy="299.14" rx="171.18" ry="113.17" transform="translate(-28.78 560.19) rotate(-74.15)"/><ellipse class="cls-1" cx="356.28" cy="306.48" rx="75.52" ry="44.49" transform="translate(-35.84 565.53) rotate(-74.15)"/><circle class="cls-2" cx="732.53" cy="374.18" r="32.41"/><path class="cls-1" d="M133.43,260.39l8.72,101s61.41-29,64.07-79.35C206.22,282,202.79,232.69,133.43,260.39Z"/></g></g></svg>