<svg xmlns="http://www.w3.org/2000/svg" viewBox="0 0 426.04 444.33"><defs><style>.cls-1,.cls-3{fill:#231f20;}.cls-1,.cls-11,.cls-12,.cls-13,.cls-14,.cls-15,.cls-17,.cls-2,.cls-3,.cls-5,.cls-7,.cls-8,.cls-9{stroke:#fff;}.cls-1,.cls-11,.cls-12,.cls-13,.cls-14,.cls-15,.cls-17,.cls-2,.cls-5,.cls-7,.cls-8,.cls-9{stroke-miterlimit:10;}.cls-1,.cls-14,.cls-17,.cls-3,.cls-5,.cls-7{stroke-width:2px;}.cls-2{fill:#87cb97;}.cls-14,.cls-3{stroke-linecap:round;}.cls-3{stroke-linejoin:bevel;}.cls-4{fill:#fed800;}.cls-13,.cls-5{fill:#91c95c;}.cls-6{fill:#9d82bc;}.cls-15,.cls-7,.cls-8{fill:#fff;}.cls-9{fill:#f04a23;}.cls-10{fill:#6ba6d9;}.cls-11{fill:#cccccb;}.cls-12{fill:#515250;}.cls-14,.cls-17{fill:none;}.cls-15{font-size:70px;font-family:AndesRoundedW03-Bold, AndesRoundedW03-Bold;}.cls-16{letter-spacing:-0.02em;}</style></defs><title>director</title><g id="Layer_2" data-name="Layer 2"><g id="Layer_1-2" data-name="Layer 1"><path class="cls-1" d="M32.66,443.33c-19.57,0-19.58-20.45-19.42-55.31-.81-61.5,1.78-155.13-.77-216.26-.24-15-.66-43.14-1.88-49.4-1.5-7.73-7.27-10.76-9.46-19.6a4.66,4.66,0,0,1,3.46-5.61l401.56-96a4.64,4.64,0,0,1,5.52,3.14c3,9.8,8.76,23.4,8.45,29.56-.09,1.75.61,3.33-1.09,3.74L85.39,116.78l-4.86,12.41h0a4.65,4.65,0,0,0,3.89,2.07L419.76,130a4.67,4.67,0,0,1,4.68,4.77c-1.44,68.88,1.77,120.07.11,189.78l.49,64c.16,34.87-2.61,54.75-22.19,54.75H32.66"/><circle class="cls-1" cx="40.99" cy="119.54" r="8.71"/><text></text><polygon class="cls-2" points="138.28 104.55 99.6 74.68 149.84 62.73 184.9 92.19 138.28 104.55"/><line class="cls-3" x1="100" y1="74.99" x2="137.44" y2="103.9"/><polygon class="cls-4" points="171.24 96.13 132.63 67.02 176.92 55.89 215.27 85.5 171.24 96.13"/><line class="cls-5" x1="133.27" y1="66.22" x2="172.01" y2="96.72"/><line class="cls-1" x1="166.96" y1="57.8" x2="206.58" y2="88.4"/><polyline class="cls-6" points="207.79 88 169.24 58.24 220.61 47.16 255.67 76.63"/><line class="cls-7" x1="270.15" y1="34.78" x2="304.68" y2="64.98"/><line class="cls-8" x1="304.3" y1="25.61" x2="338.83" y2="55.8"/><line class="cls-7" x1="370.99" y1="9.93" x2="406.21" y2="40.72"/><line class="cls-1" x1="202.3" y1="50.01" x2="240.76" y2="79.71"/><polygon class="cls-9" points="241.88 79.31 204.47 50.41 254.71 38.46 289.77 67.93 241.88 79.31"/><polygon class="cls-10" points="273.31 72.65 235.2 42.44 292.97 29.66 329.53 58.77 273.31 72.65"/><polygon class="cls-8" points="304.83 64.09 269.03 34.81 319.27 22.86 354.33 52.32 304.83 64.09"/><line class="cls-1" x1="233.11" y1="42" x2="272.41" y2="72.35"/><polygon class="cls-11" points="337.69 55.72 302.56 25.9 353.89 14.87 388.94 44.34 337.69 55.72"/><polygon class="cls-12" points="373.68 47.52 340.33 16.67 371.68 10.53 406.21 40.72 373.68 47.52"/><line class="cls-7" x1="339.15" y1="17.33" x2="375.28" y2="48.93"/><line class="cls-7" x1="370.99" y1="9.93" x2="405.1" y2="39.75"/><polygon class="cls-13" points="135.95 131.4 105.26 169.42 156.9 169.39 184.17 132.6 135.95 131.4"/><line class="cls-3" x1="107.13" y1="167.09" x2="135.95" y2="131.4"/><polygon class="cls-4" points="169.97 131.94 139.16 169.21 184.83 169.76 215.27 132.07 169.97 131.94"/><line class="cls-1" x1="140.11" y1="168.93" x2="170.59" y2="131.18"/><line class="cls-1" x1="175.42" y1="169.32" x2="206.14" y2="131.27"/><polyline class="cls-6" points="207.41 131.37 177.71 168.15 229.35 168.13 256.62 131.34"/><line class="cls-7" x1="280.41" y1="168.68" x2="307" y2="131.31"/><line class="cls-8" x1="315.76" y1="169.69" x2="342.34" y2="132.31"/><line class="cls-7" x1="384.26" y1="169.49" x2="411.38" y2="131.37"/><line class="cls-1" x1="210.88" y1="169.6" x2="241.41" y2="131.8"/><polygon class="cls-9" points="242.59 131.93 212.9 168.71 264.54 168.69 291.81 131.9 242.59 131.93"/><polygon class="cls-10" points="274.71 131.11 244.63 169.34 303.8 168.38 332.61 131.59 274.71 131.11"/><polygon class="cls-8" points="307.35 132.14 279.32 168.92 330.96 168.9 358.23 132.11 307.35 132.14"/><line class="cls-1" x1="243.38" y1="169.42" x2="273.9" y2="131.61"/><polygon class="cls-11" points="341.25 132.66 314.84 168.66 366.48 168.64 393.75 131.85 341.25 132.66"/><polygon class="cls-12" points="378.16 132.29 353.31 168.65 384.8 168.74 411.38 131.37 378.16 132.29"/><line class="cls-7" x1="351.58" y1="169.66" x2="378.16" y2="132.29"/><line class="cls-14" x1="79.6" y1="130.51" x2="422.46" y2="131.89"/><line class="cls-7" x1="384.26" y1="169.49" x2="409.99" y2="133.33"/><line class="cls-1" x1="51.88" y1="265.8" x2="388.94" y2="265.8"/><text class="cls-15" transform="translate(89.6 367.93)">Di<tspan class="cls-16" x="65.38" y="0">r</tspan><tspan x="93.03" y="0">ector</tspan></text><line class="cls-1" x1="51.88" y1="207.38" x2="388.6" y2="207.38"/><line class="cls-1" x1="51.88" y1="413.74" x2="397.12" y2="413.74"/><line class="cls-17" x1="142.82" y1="207.38" x2="142.82" y2="265.8"/><line class="cls-17" x1="277.67" y1="206.27" x2="277.67" y2="265.8"/><path class="cls-17" d="M405.63,2l2.74-.65a1.56,1.56,0,0,1,1.85,1l11,32a3.36,3.36,0,0,1-2.41,4.37L85.39,116.78,79.6,130.51"/><path class="cls-17" d="M408.37,1.33,4.59,97.15S-5,98.33,8,115.87c0,0,3.19,1.63,3.74,22.74l.66,26.56a3.22,3.22,0,0,0,3.19,3.13l404.94,2.12a1.93,1.93,0,0,0,1.94-1.93v-36.6"/></g></g></svg>