<svg xmlns="http://www.w3.org/2000/svg" viewBox="0 0 429.04 465.69"><defs><style>.cls-1{fill:#9a5c4b;}.cls-2{fill:#ddc665;}</style></defs><title>fantasy</title><g id="Layer_2" data-name="Layer 2"><g id="Layer_1-2" data-name="Layer 1"><rect class="cls-1" x="299.68" y="156.17" width="24" height="348.43" rx="12" ry="12" transform="translate(-139.9 281.68) rotate(-40.51)"/><path class="cls-2" d="M128.69,104.92l43.1,18.66a8.21,8.21,0,0,0,7.61-.58l39.8-24.93a8.2,8.2,0,0,1,12.52,7.72l-4.42,46.76a8.18,8.18,0,0,0,2.9,7.06l36,30.15a8.2,8.2,0,0,1-3.48,14.29L216.9,214.29a8.21,8.21,0,0,0-5.82,4.94l-17.55,43.56a8.19,8.19,0,0,1-14.66,1.11L155,223.48a8.21,8.21,0,0,0-6.49-4l-46.86-3.22A8.2,8.2,0,0,1,96,202.64l31.05-35.23a8.19,8.19,0,0,0,1.81-7.41l-11.41-45.56A8.2,8.2,0,0,1,128.69,104.92Z"/><rect class="cls-2" x="25.71" y="127.64" width="15.51" height="66.96" rx="7.76" ry="7.76" transform="translate(-126.58 199.37) rotate(-91.71)"/><rect class="cls-2" x="301.64" y="97.72" width="15.51" height="66.96" rx="7.76" ry="7.76" transform="translate(247.6 461.53) rotate(-102.38)"/><rect class="cls-2" x="75.51" y="22.28" width="15.51" height="66.96" rx="7.76" ry="7.76" transform="translate(-16.61 64) rotate(-38.52)"/><rect class="cls-2" x="178.7" y="-0.71" width="15.51" height="66.96" rx="7.76" ry="7.76" transform="translate(12.81 -42.65) rotate(13.51)"/><rect class="cls-2" x="109.23" y="258.25" width="15.51" height="66.96" rx="7.76" ry="7.76" transform="translate(114.95 -22.58) rotate(21.48)"/><rect class="cls-2" x="264.44" y="14.06" width="15.51" height="66.96" rx="7.76" ry="7.76" transform="translate(435.61 270.35) rotate(-136.16)"/><rect class="cls-2" x="28.56" y="203.1" width="15.51" height="66.96" rx="7.76" ry="7.76" transform="translate(-165.23 365.68) rotate(-113.92)"/></g></g></svg>