<svg xmlns="http://www.w3.org/2000/svg" viewBox="0 0 226.1 484.93"><defs><style>.cls-1{fill:#a157a2;}</style></defs><title>Asset 2</title><g id="Layer_2" data-name="Layer 2"><g id="Layer_1-2" data-name="Layer 1"><circle class="cls-1" cx="113.96" cy="36.68" r="36.68"/><path class="cls-1" d="M38.1,120.71c-.17.45-.45.87-.59,1.33L.33,243.65a1.46,1.46,0,0,0,0,.2c-.26,1.3-2.6,15,12.5,18,0,0,15.86,4.4,22-17.64,0-.08.06-.17.08-.25L64.38,143.25A8.07,8.07,0,0,1,65,142a4.74,4.74,0,0,1,8.65,1,5.1,5.1,0,0,1,0,3L20.85,320.15a5.87,5.87,0,0,0,5.61,7.57H64.7a5.86,5.86,0,0,1,5.87,5.86V469a5.62,5.62,0,0,0,.07.92c.45,2.66,3.34,14.7,19,15a6.11,6.11,0,0,0,1.28-.13c3-.65,15-3.89,15.58-14.74V331.21a5.87,5.87,0,0,1,1.64-4.07c2-2.11,5.74-4.46,9.67.24a5.77,5.77,0,0,1,1.32,3.71v138.6a5.61,5.61,0,0,0,.26,1.72c1,3.08,5,12.69,17.93,13.5,0,0,16.45,1.17,18.37-14.93a6,6,0,0,0,0-.73V333.37a5.86,5.86,0,0,1,5.86-5.87H200a5.86,5.86,0,0,0,5.6-7.58L152,145a3.81,3.81,0,0,1-.06-2,4.92,4.92,0,0,1,6.3-3.43,6.27,6.27,0,0,1,3.42,3.66L196,254.38a5.85,5.85,0,0,0,1.47,2.43,17.84,17.84,0,0,0,18.16,4.56s9.68-1.39,10.41-11.59a6.07,6.07,0,0,0-.25-2.2L187.38,123.41a47.86,47.86,0,0,0-6.9-13.91c-6.74-9.3-19.76-23.35-36-21.52a5.63,5.63,0,0,1-.58,0H80.2S50.92,87.82,38.1,120.71Z"/></g></g></svg>