<svg xmlns="http://www.w3.org/2000/svg" viewBox="0 0 226.1 488.03"><defs><style>.cls-1{fill:#a157a2;}</style></defs><title>female-pink</title><g id="Layer_2" data-name="Layer 2"><g id="Layer_1-2" data-name="Layer 1"><circle class="cls-1" cx="114.73" cy="34.48" r="34.48"/><path class="cls-1" d="M38.1,119.29c-.17.46-.45.88-.59,1.35L.33,243.76a1.33,1.33,0,0,0,0,.19c-.26,1.33-2.6,15.18,12.5,18.18,0,0,15.86,4.46,22-17.86,0-.08.06-.17.08-.26l29.52-101.9a8.26,8.26,0,0,1,.66-1.29,4.72,4.72,0,0,1,8.65,1,5.2,5.2,0,0,1,0,3.05L20.85,321.21a5.93,5.93,0,0,0,5.61,7.66H64.7a5.9,5.9,0,0,1,5.87,5.93V471.89a5.86,5.86,0,0,0,.07.94c.45,2.69,3.34,14.87,19,15.18a5.51,5.51,0,0,0,1.28-.13c3-.66,15-3.94,15.58-14.92V332.41a6,6,0,0,1,1.64-4.13c2-2.14,5.74-4.51,9.67.25a5.84,5.84,0,0,1,1.32,3.75V472.6a5.69,5.69,0,0,0,.26,1.74c1,3.12,5,12.85,17.93,13.67,0,0,16.45,1.18,18.37-15.11a6.28,6.28,0,0,0,0-.75V334.58a5.9,5.9,0,0,1,5.86-5.93H200a5.92,5.92,0,0,0,5.6-7.68L152,143.87a3.89,3.89,0,0,1-.06-2,4.92,4.92,0,0,1,6.3-3.48,6.33,6.33,0,0,1,3.42,3.71L196,254.62a6,6,0,0,0,1.47,2.46,17.69,17.69,0,0,0,18.16,4.61s9.68-1.4,10.41-11.73a6.23,6.23,0,0,0-.25-2.23L187.38,122a48.67,48.67,0,0,0-6.9-14.08c-6.74-9.42-19.76-23.64-36-21.79a5.63,5.63,0,0,1-.58,0H80.2S50.92,86,38.1,119.29Z"/></g></g></svg>