<svg xmlns="http://www.w3.org/2000/svg" viewBox="0 0 818.6 999.04"><defs><style>.cls-1,.cls-6{fill:#fff;}.cls-2{fill:#f04a23;}.cls-3{fill:#91c95c;}.cls-4{fill:#fed800;}.cls-5{fill:#6ba6d9;}.cls-6{font-size:136px;font-family:AndesRoundedW03-Bold, AndesRoundedW03-Bold;}.cls-7{letter-spacing:-0.02em;}</style></defs><title>Asset 47</title><g id="Layer_2" data-name="Layer 2"><g id="Layer_1-2" data-name="Layer 1"><rect class="cls-1" x="402.62" y="28.21" width="32.42" height="970.82" rx="12" ry="12" transform="translate(-4.23 3.48) rotate(-0.47)"/><polygon class="cls-2" points="223.3 669 0 845.69 218.26 955.91 219.3 896.55 684.92 798.34 680.87 677.04 224.82 723.46 223.3 669"/><polygon class="cls-3" points="94.67 91.33 92.46 217.2 621.02 187.45 620.24 232.33 804.04 103.79 618.46 0 619.61 45.89 94.67 91.33"/><polygon class="cls-4" points="231.7 180.61 18.11 282.27 227.02 446.99 231.9 391.44 678.14 436.37 680.3 313.42 232.75 232.36 231.7 180.61"/><polygon class="cls-5" points="83.38 485 81.04 618.06 625.45 631.99 627.17 682.5 818.61 554.64 622.26 427.91 622.36 478.34 83.38 485"/><text class="cls-6" transform="translate(224.36 597.09)">Gen<tspan class="cls-7" x="236.91" y="0">r</tspan><tspan x="290.63" y="0">e</tspan></text></g></g></svg>