<svg xmlns="http://www.w3.org/2000/svg" viewBox="0 0 352.69 305.64"><defs><style>.cls-1{fill:red;}</style></defs><title>heart</title><g id="Layer_2" data-name="Layer 2"><g id="Layer_1-2" data-name="Layer 1"><g id="heart"><path class="cls-1" d="M176.34,302.64a47.35,47.35,0,0,1-33.69-14l-109-109c-40.35-40.35-41-105.85-1.44-146a103,103,0,0,1,144.09-2.61,103,103,0,0,1,144.09,2.61c39.57,40.15,38.92,105.65-1.43,146l-109,109A47.35,47.35,0,0,1,176.34,302.64Z"/><path d="M247.05,6A99.69,99.69,0,0,1,318.3,35.83c38.7,39.28,37.57,102.78-1.42,141.77l-109,109a44.64,44.64,0,0,1-63.14,0l-109-109c-39-39-40.12-102.49-1.42-141.77a100,100,0,0,1,142-.54A99.68,99.68,0,0,1,247.05,6m0-6V0a105.25,105.25,0,0,0-70.72,27A106,106,0,0,0,30.11,31.62C-10.6,72.94-9.95,140.33,31.57,181.84l109,109a50.64,50.64,0,0,0,71.63,0l109-109c41.51-41.51,42.16-108.9,1.45-150.22A105.23,105.23,0,0,0,247.06,0Z"/></g></g></g></svg>