<svg xmlns="http://www.w3.org/2000/svg" viewBox="0 0 445.35 428.5"><defs><style>.cls-1,.cls-2{fill:#ddd7c0;}.cls-2,.cls-3{stroke:#615c53;stroke-miterlimit:10;stroke-width:3px;}.cls-3{fill:none;stroke-linecap:round;}</style></defs><title>history</title><g id="Layer_2" data-name="Layer 2"><g id="Layer_1-2" data-name="Layer 1"><polyline class="cls-1" points="41.96 69.89 9.01 93.89 5.84 141.09 82.38 164.1 108.25 165.25 152.21 202.1 335.46 194.68 332.91 168.16 362.78 164.1 414.64 167.5 443.79 109.33 405.32 66.91"/><rect class="cls-1" x="118.5" y="231.91" width="206.02" height="196.58" rx="7.5" ry="7.5"/><path class="cls-2" d="M14.79,1.5H422.31a12,12,0,0,1,12,12v18a12,12,0,0,1-12,12H20.72a12,12,0,0,1-12-12V7.57A6.07,6.07,0,0,1,14.79,1.5Z"/><rect class="cls-2" x="103.34" y="194.68" width="237.77" height="37.24" rx="5.64" ry="5.64"/><rect class="cls-2" x="35.72" y="40.79" width="374.84" height="29.1" rx="12" ry="12"/><path class="cls-2" d="M175.67,70.16s22.49,55,14.35,89.94h64.59s-4.31-57.41,16.26-89.94Z"/><path class="cls-2" d="M42,69.89S-14.25,91.82,5.84,141.1c0,0,11.38,36.37,57.62,30.37,5.95-.77,13.19-4,18.92-7.37a26,26,0,0,0,12.86-18.78c.84-6.38-.5-14-8.26-20.75a3.14,3.14,0,0,0-5.2,2.29c-.14,8.35-2.82,22.25-18.9,23.25,0,0-33.6-1.37-29.32-30.23A36.15,36.15,0,0,1,50,94.87c13.17-8.44,34.79-15.42,61.06,2.67a86,86,0,0,1,29.35,35.6c2.84,6.31,6.12,14,9,21.88,4.89,13.3,6.32,29,6.12,39.66h-44s-6.23-26.27-29.19-30.58"/><line class="cls-3" x1="155.6" y1="241.65" x2="155.6" y2="417.44"/><line class="cls-3" x1="201.42" y1="241.65" x2="201.42" y2="417.44"/><line class="cls-3" x1="245.41" y1="241.65" x2="245.41" y2="417.44"/><line class="cls-3" x1="289.56" y1="241.65" x2="289.56" y2="417.44"/><path class="cls-2" d="M406.14,69.16s53.27,22.66,33.18,71.94c0,0-11.39,36.37-57.63,30.37-5.94-.77-13.19-4-18.91-7.37a25.92,25.92,0,0,1-12.86-18.78c-.85-6.38.49-14,8.25-20.75a3.14,3.14,0,0,1,5.2,2.29c.15,8.35,2.83,22.25,18.9,23.25,0,0,33.6-1.37,29.33-30.23a36.2,36.2,0,0,0-16.48-25c-13.16-8.44-34.78-15.42-61.05,2.67a85.91,85.91,0,0,0-29.35,35.6c-2.84,6.31-6.12,14-9,21.88-4.9,13.3-6.32,29-6.12,39.66h44s6.22-26.27,29.19-30.58"/></g></g></svg>