<svg xmlns="http://www.w3.org/2000/svg" viewBox="0 0 351.69 350.4"><defs><style>.cls-1{fill:#9a5c4b;}.cls-2{fill:#dcdedd;}.cls-3{fill:#b71f24;}</style></defs><title>horror</title><g id="Layer_2" data-name="Layer 2"><g id="Layer_1-2" data-name="Layer 1"><path class="cls-1" d="M198.7,232.8l19.59,19.59s18.28,3.65,27.22,20a65.22,65.22,0,0,0,8.15,11.43c7.92,9.08,21.71,24.33,30.73,31.2a20.9,20.9,0,0,1,4.76,5.12c3.36,5.09,10.17,15,16.44,21.94a24.19,24.19,0,0,0,15.67,7.87c13.94,1.34,40.22,1.24,26.65-21L226.84,207.87Z"/><path class="cls-2" d="M198.7,232.8s-18.6-4.34-31.77,13.11L76.82,140.39S4.9,63.84,0,0C0,0,34.9,12,81.19,60.45L226.84,207.87Z"/><path class="cls-3" d="M41.66,30.89S56.06,39.1,46.29,74c0,0-2.35,11.32,16.74,15,0,0,9.5,3,6.41,25.28,0,0,4.27,12.82,28.49,23.5,0,0,20.53,7.43,26.74,32.41,0,0,3.59,23.5,0,26.71C124.67,196.84,3.76,79.09.1,2.47Z"/></g></g></svg>