<svg xmlns="http://www.w3.org/2000/svg" viewBox="0 0 179.87 491.03"><defs><style>.cls-1{fill:#fff;}</style></defs><title>Asset 1</title><g id="Layer_2" data-name="Layer 2"><g id="Layer_1-2" data-name="Layer 1"><path class="cls-1" d="M38.49,151.05V468.87S39.71,490,61.05,491c0,0,19.29,2.06,24.69-19.29v-189a4.26,4.26,0,0,1,2.44-3.94,3.31,3.31,0,0,1,3.13.14,4.36,4.36,0,0,1,2.09,3.81V470.61S96,492.25,117.48,490.5c0,0,18.71-.39,22.22-18.91V147.92a6.22,6.22,0,0,1,2-4.66,2.62,2.62,0,0,1,4.11.2,6.37,6.37,0,0,1,1.61,4.36L147,265.26s.49,15.44,16.35,14.46c0,0,14.74.42,16.49-14.39V121.63S175.69,92.28,143.45,90H36s-31.42-.52-36,27.8v148s1.65,14.47,15.61,13.64c0,0,12.91,1.37,16.12-14.45l.2-117.71A4.43,4.43,0,0,1,34,143.42a2.66,2.66,0,0,1,3,0,3.13,3.13,0,0,1,1.32,2.55Z"/><circle class="cls-1" cx="88.82" cy="36.68" r="36.68"/></g></g></svg>