<svg xmlns="http://www.w3.org/2000/svg" viewBox="0 0 347.33 325.24"><defs><style>.cls-1{fill:#9d82bc;}</style></defs><title>music</title><g id="Layer_2" data-name="Layer 2"><g id="Layer_1-2" data-name="Layer 1"><path class="cls-1" d="M50.69,5.37l-4.26,130.1S8.39,125.29.3,154.39c0,0-4.58,21.72,22.31,22.82,0,0,32.94,1.91,34.57-24L61,34.41s30.54,8.22,34.74,35.4a70.8,70.8,0,0,1-5.71,34.91s-2.28,5.74,4,.84c0,0,5.83-5.66,8.85-18.65a55.54,55.54,0,0,0-6-40.25,101.6,101.6,0,0,0-14.59-19.3S70.59,13.3,62.81,3.64A9.65,9.65,0,0,0,57.27.15C54.66-.37,51.6.23,50.69,5.37Z"/><path class="cls-1" d="M279,29.07l36.27,108.32s-34.4,3.26-32.16,29.67c0,0,2.88,19.27,25.34,11.95,0,0,27.68-8.5,21.1-30.31L296.39,49.79s27.64-2.58,39.4,18.5a62.17,62.17,0,0,1,6,30.46s-.12,5.42,3.57-.54c0,0,3-6.25,1.64-17.54a44.79,44.79,0,0,0-15-28.2,158.89,158.89,0,0,0-20.25-15s-14-8-23.34-13.53a8.47,8.47,0,0,0-5.61-1.18C280.51,23.13,278.17,24.57,279,29.07Z"/><path class="cls-1" d="M264.62,246.79,242.89,93.18a7.11,7.11,0,0,0-9.27-5.75L101.69,131a6.24,6.24,0,0,0-4.23,6.76l17.34,129s-50.59-5.26-55,33.5c0,0-1.43,28.64,33.11,24.58,0,0,42.4-4.24,39.23-37.62l-16.36-119,118.87-38.52,12.5,93s-50.59-5.27-55,33.49c0,0-1.44,28.65,33.1,24.59,0,0,42.41-4.25,39.23-37.63"/></g></g></svg>