<svg xmlns="http://www.w3.org/2000/svg" viewBox="0 0 355.32 331.24"><defs><style>.cls-1,.cls-2{fill:#92ca68;}.cls-2{stroke:#000;stroke-miterlimit:10;stroke-width:4px;}</style></defs><title>Asset 9</title><g id="Layer_2" data-name="Layer 2"><g id="Layer_1-2" data-name="Layer 1"><path class="cls-1" d="M28.1,183.24c-1,0-1.61,0-1.61,0-9.41-.39-16.29-3.26-20.4-8.55C.43,167.39,2.25,158.36,2.33,158l0-.13c2.81-10.08,10.89-22.1,33.47-22.1A66.85,66.85,0,0,1,48.5,137L52.69,9.17l0-.14c1.07-6.12,4.9-7,7.09-7a9.3,9.3,0,0,1,1.85.19,11.67,11.67,0,0,1,6.7,4.2C75.82,15.64,87.08,29.12,87.84,30a103.91,103.91,0,0,1,14.82,19.64,57.33,57.33,0,0,1,6.23,41.7c-3.12,13.4-9.15,19.37-9.4,19.62l-.08.08-.09.06c-2.16,1.69-3.62,2.41-4.87,2.41h0a2.68,2.68,0,0,1-2.27-1.16c-.94-1.39-.39-3.35,0-4.4A69.38,69.38,0,0,0,97.79,74.1C94.52,52.92,74.06,43.72,67,41.14L63.17,157.28C62,176.44,44.27,183.24,28.1,183.24Z"/><path d="M59.81,4a8,8,0,0,1,1.46.15,9.68,9.68,0,0,1,5.54,3.49c7.77,9.66,19.54,23.72,19.54,23.72a101.92,101.92,0,0,1,14.58,19.3,55.54,55.54,0,0,1,6,40.25c-3,13-8.86,18.65-8.86,18.65-1.88,1.47-3,2-3.64,2-1.5,0-.38-2.82-.38-2.82a70.86,70.86,0,0,0,5.7-34.91C95.58,46.63,65,38.41,65,38.41l-3.85,118.8c-1.43,22.58-26.63,24-33.08,24-1,0-1.49,0-1.49,0-26.9-1.1-22.32-22.82-22.32-22.82,4.76-17.12,19.89-20.64,31.54-20.64a62.88,62.88,0,0,1,14.59,1.72L54.68,9.37C55.43,5.17,57.61,4,59.81,4m0-4c-4.72,0-8.1,3.24-9.06,8.68l0,.28v.28L46.58,134.62a68.44,68.44,0,0,0-10.75-.87c-18.6,0-31.17,8.37-35.4,23.57l0,.12,0,.12c-.08.42-2.08,10.33,4.14,18.33,4.49,5.77,11.86,8.9,21.91,9.32.16,0,.76,0,1.68,0,17.07,0,35.78-7.29,37.07-27.77v-.13L68.85,44a58,58,0,0,1,10,5.34c9.73,6.57,15.45,15,17,25a67.67,67.67,0,0,1-5.41,32.73l0,.06,0,.06c-.56,1.42-1.28,4.11.18,6.26a4.65,4.65,0,0,0,3.92,2c1.73,0,3.55-.85,6.1-2.83l.17-.13.16-.15c.27-.27,6.7-6.64,10-20.61a59.37,59.37,0,0,0-6.44-43.15,106.27,106.27,0,0,0-15.06-20c-1-1.25-12.09-14.46-19.42-23.57A13.7,13.7,0,0,0,62.05.23,11.67,11.67,0,0,0,59.81,0Z"/><path class="cls-1" d="M303.11,186.67c-12.42,0-17.19-10-18-15.31l0-.13c-2-23.7,23.36-30,31.5-31.47L281.05,33.57l0-.14a7.81,7.81,0,0,1,1-6.06,6.64,6.64,0,0,1,4.53-2.58,9.39,9.39,0,0,1,1.5-.12,10.7,10.7,0,0,1,5.45,1.55c9.23,5.49,23.16,13.44,23.3,13.52A161.74,161.74,0,0,1,337.34,55,46.74,46.74,0,0,1,353,84.44c1.38,11.72-1.69,18.35-1.82,18.63l-.05.09,0,.1c-1.65,2.66-2.91,3.74-4.37,3.74a2.53,2.53,0,0,1-1.84-.78,5.11,5.11,0,0,1-1.07-3.52A60.56,60.56,0,0,0,338,73.25c-8.85-15.85-27.27-17.56-34.78-17.56h-.12l32.31,96.37c5.67,18.82-12.18,29.72-22.41,32.86a32.31,32.31,0,0,1-9.92,1.75Z"/><path d="M288,26.67a8.65,8.65,0,0,1,4.43,1.27c9.35,5.56,23.33,13.53,23.33,13.53a158.39,158.39,0,0,1,20.26,15,44.84,44.84,0,0,1,15,28.2c1.33,11.29-1.65,17.54-1.65,17.54-1.3,2.11-2.13,2.8-2.66,2.8-.95,0-.91-2.26-.91-2.26a62,62,0,0,0-6-30.46c-9.45-16.94-29.15-18.6-36.53-18.6-1.8,0-2.87.1-2.87.1l33.16,98.91c6.58,21.81-21.1,30.31-21.1,30.31a30.22,30.22,0,0,1-9.33,1.66c-14,0-16-13.61-16-13.61-2.24-26.41,32.17-29.67,32.17-29.67L283,33.07c-.82-4.5,1.51-5.94,3.82-6.31a8,8,0,0,1,1.19-.09m0-4a12.29,12.29,0,0,0-1.82.14,8.49,8.49,0,0,0-5.84,3.41,9.63,9.63,0,0,0-1.28,7.57l.05.28.09.27L314,138.21a56.64,56.64,0,0,0-13.41,4.53c-12.48,6.17-18.52,16.08-17.45,28.66v.12l0,.13c.88,5.89,6.18,17,20,17a34.32,34.32,0,0,0,10.55-1.85A48.8,48.8,0,0,0,328,179.16c9.36-7.45,12.62-17,9.42-27.62l0-.06,0,0-31.4-93.68c19.5.91,27.67,11.68,30.34,16.46a58.74,58.74,0,0,1,5.5,28.32v.13a7,7,0,0,0,1.63,5,4.55,4.55,0,0,0,3.27,1.39c2.79,0,4.63-2.38,6.07-4.7l.11-.19.1-.2c.35-.74,3.42-7.63,2-19.72a48.76,48.76,0,0,0-16.28-30.73A163.83,163.83,0,0,0,317.9,38.1l-.08-.05-.08,0c-.14-.08-14.06-8-23.27-13.5A12.63,12.63,0,0,0,288,22.67Z"/><path class="cls-2" d="M268.62,250.79,246.88,97.18a7.11,7.11,0,0,0-9.27-5.75L105.68,135a6.24,6.24,0,0,0-4.23,6.76l17.34,129s-50.59-5.26-55,33.5c0,0-1.44,28.64,33.1,24.58,0,0,42.41-4.24,39.23-37.62l-16.35-119,118.86-38.52,12.5,93s-50.59-5.27-55,33.49c0,0-1.44,28.65,33.1,24.59,0,0,42.41-4.25,39.24-37.63"/></g></g></svg>