<svg xmlns="http://www.w3.org/2000/svg" viewBox="0 0 372.66 294"><defs><style>.cls-1{fill:#fed800;}.cls-2{fill:#8d8d8e;}.cls-3{fill:none;}</style></defs><title>musical</title><g id="Layer_2" data-name="Layer 2"><g id="Layer_1-2" data-name="Layer 1"><path class="cls-1" d="M68.86,113.92l0-15.71S77.1,95.08,74.66,82h0L45.37,92.67s2.67,7.52,5.75,10.76c0,0-5.7,49.12,13.55,77.45,0,0,2.7,4.83,11.29,5.75a24.88,24.88,0,0,0,12.94-2.21l18.88-8.62-9.93-32.74-17.46,8.5S68.9,126.18,68.86,113.92Z"/><path class="cls-1" d="M125.56,264.55c.65-12,14.1-96.23,14.1-96.23l-31.88,7.48-9.93-32.74c5.28-7.29,14.52-13.15,23.16-17.4a82.09,82.09,0,0,1,35-8.34l20.77-.32a95.53,95.53,0,0,1,9.57.33l15.92,1.34c3.06.26,6.11.66,9.13,1.2l18.22,3.23C249.84,126.93,264,171,264,171l-21,24.23-8.61-9.69.27,84.78Z"/><path class="cls-2" d="M28.32,91.35h0a6.79,6.79,0,0,0,8.79,4.32L74.84,81.93a6.84,6.84,0,0,1,4-.19,28.21,28.21,0,0,0,10.56.83c6.12-.89,14-6.45,9.79-18.39A6.61,6.61,0,0,0,98,62.11c-1.82-2.09-6.41-6.6-12-6.41-3.46.12-7.54,1.23-11.1,7.51A6.81,6.81,0,0,1,71.74,66l-4.48,2L32.12,83A6.79,6.79,0,0,0,28.32,91.35Z"/><rect class="cls-1" x="49.24" y="67.55" width="5.61" height="15.28" rx="2.81" ry="2.81" transform="translate(-9.63 7.67) rotate(-7.72)"/><rect class="cls-1" x="55.66" y="65.8" width="5.61" height="15.28" rx="2.81" ry="2.81" transform="translate(-9.33 8.52) rotate(-7.72)"/><rect class="cls-1" x="62.46" y="65.8" width="5.61" height="15.28" rx="2.81" ry="2.81" transform="translate(-6.89 6.75) rotate(-5.63)"/><rect class="cls-1" x="43.01" y="72.68" width="5.61" height="15.28" rx="2.81" ry="2.81" transform="translate(-7.66 4.88) rotate(-5.63)"/><path class="cls-1" d="M243,195.24s15,25.52,15.43,25.52,10,16.31,27.38,23.67c0,0,21.48,8.93,34.6,12.73,0,0,7.1,13.51,18.89,9a15.56,15.56,0,0,0,9.74-18,14.19,14.19,0,0,0-.88-2.54,20.71,20.71,0,0,0-7.26-8s-9.89-7.5-15.45-1.94c0,0-16.19-6.63-28.75-17.4,0,0-10.44-7.55-15.27-12.07,0,0-7.92-15-17.43-35.11Z"/><circle class="cls-1" cx="186.22" cy="61.52" r="35.15"/><rect class="cls-3" width="372.66" height="294"/></g></g></svg>