<svg xmlns="http://www.w3.org/2000/svg" viewBox="0 0 311.83 295.02"><defs><style>.cls-1,.cls-2{fill:#ddc665;}.cls-2,.cls-3{stroke:#000;stroke-miterlimit:10;stroke-width:3px;}.cls-3{fill:none;}</style></defs><title>mystery</title><g id="Layer_2" data-name="Layer 2"><g id="Layer_1-2" data-name="Layer 1"><line class="cls-1" x1="117.53" y1="161.41" x2="136.58" y2="180.7"/><path class="cls-2" d="M121.91,160.42,10,253.1C4.16,258,0,265.48,2,272.82c1.86,6.77,7.88,14.74,18.15,19.43a14,14,0,0,0,15.67-2.78L141.3,184.56Z"/><path class="cls-1" d="M235.36,6.05a105.51,105.51,0,1,0,70.42,131.54A105.5,105.5,0,0,0,235.36,6.05Zm50.35,125.47a84.53,84.53,0,1,1-56.43-105.4A84.53,84.53,0,0,1,285.71,131.52Z"/><path class="cls-3" d="M235.36,6.05a105.51,105.51,0,1,0,70.42,131.54A105.5,105.5,0,0,0,235.36,6.05Zm50.35,125.47a84.53,84.53,0,1,1-56.43-105.4A84.53,84.53,0,0,1,285.71,131.52Z"/><rect class="cls-1" x="101.87" y="167.83" width="38.4" height="29.07" rx="8.42" ry="8.42" transform="translate(-92.38 133.85) rotate(-43.62)"/></g></g></svg>