<svg xmlns="http://www.w3.org/2000/svg" viewBox="0 0 203.66 196.17"><defs><style>.cls-1{fill:#ddc665;}</style></defs><title>Asset 3</title><g id="Layer_2" data-name="Layer 2"><g id="Layer_1-2" data-name="Layer 1"><line class="cls-1" x1="82.39" y1="102.36" x2="95.91" y2="116.06"/><path class="cls-1" d="M157,2.83a65.69,65.69,0,1,0,43.85,81.9A65.68,65.68,0,0,0,157,2.83ZM188.33,81A52.63,52.63,0,1,1,153.2,15.33,52.64,52.64,0,0,1,188.33,81Z"/><path class="cls-1" d="M85.49,101.66,6.05,167.47c-4.16,3.44-7.11,8.79-5.69,14,1.32,4.8,5.6,10.47,12.89,13.8a9.94,9.94,0,0,0,11.13-2L99.26,118.8Z"/></g></g></svg>