<svg xmlns="http://www.w3.org/2000/svg" viewBox="0 0 353.73 913.78"><defs><style>.cls-1{fill:#8d8d8e;}.cls-2{fill:#565656;}.cls-3{fill:#fed800;}</style></defs><title>oscar</title><g id="Layer_2" data-name="Layer 2"><g id="Layer_1-2" data-name="Layer 1"><path class="cls-1" d="M0,847.21,3,893s-3,17.3,173.76,20.79c0,0,150.66,2.36,175.53-27V852.28s-95,34-175.42,34.48C176.87,886.76-.49,867.41,0,847.21Z"/><ellipse class="cls-2" cx="176.87" cy="847.21" rx="176.87" ry="39.55"/><path class="cls-1" d="M297.57,717.87H56.16l-.22,123.88h0c39.65,12.33,75.49,16.87,135.9,16.49l-9.93.38c22,.22,46.89-.55,86.24-7.93a99,99,0,0,0,13.43-3.52l16-5.45Z"/><ellipse class="cls-2" cx="176.76" cy="717.24" rx="120.71" ry="27.87"/><path class="cls-3" d="M170.05,719.71h51.33s12.19-1.28,3.21-16c0,0-27.59-25-23.1-62.24,0,0,20.53-53.89,18-91.75,0,0-6.87-51.33,8.44-89.19,0,0,15.31-36.57,7.61-85.34,0,0-14.28-59.67,2.16-68,0,0,23.5-14.76,25.43-40.43L275.28,182a40.47,40.47,0,0,0-.06-4.7,47.12,47.12,0,0,0-31.9-41.49c-16.66-5.76-45.19-20.36-40.85-52a393,393,0,0,1,5.88-44c4-20-10.67-39.2-31-39.83q-.84,0-1.71,0"/><path class="cls-3" d="M181.64,719.71H131.48a8.87,8.87,0,0,1-4.32-1c-2.73-1.52-5.56-5.14-.83-13.68a9.75,9.75,0,0,1,1.63-2.15c4.58-4.57,25.74-27.59,22.37-60.22a9.28,9.28,0,0,0-.54-2.27c-2.85-7.76-19.81-55.66-17.58-90.34,0-.22,0-.43.06-.64.54-4.34,6.13-52.75-8.48-88.88,0,0-15.22-36.39-7.66-85,0-.23.08-.47.14-.7,1.11-4.8,13.47-59.71-2.25-67.68,0,0-23.5-14.76-25.42-40.43L76.47,182.48a8.61,8.61,0,0,1-.09-1c0-.74,0-2.19.08-4.15a47.12,47.12,0,0,1,31.9-41.49c16.66-5.76,45.19-20.36,40.85-52a393,393,0,0,0-5.88-44c-4-20,10.67-39.2,31-39.83.57,0,1.14,0,1.72,0"/></g></g></svg>