<svg xmlns="http://www.w3.org/2000/svg" viewBox="0 0 402.54 287.81"><defs><style>.cls-1,.cls-5{fill:#b67445;}.cls-2,.cls-3{fill:none;stroke-linecap:round;}.cls-2,.cls-5{stroke:#845534;}.cls-2,.cls-3,.cls-5{stroke-miterlimit:10;stroke-width:4px;}.cls-3{stroke:#000;}.cls-4{fill:#fadcb8;}</style></defs><title>Asset 4</title><g id="Layer_2" data-name="Layer 2"><g id="Layer_1-2" data-name="Layer 1"><path class="cls-1" d="M126,271.59c82.24-108.92,148-150.34,176.09-163.1,10.73-4.87,10.85-15.43,9.34-27.11-5.81-44.8-23.35-67.71-23.35-67.71C276.63-7.38,242,2.16,242,2.16,209.43,12.79,190.2,14.51,179.82,14.1A26.63,26.63,0,0,1,165.7,9.44a39.22,39.22,0,0,0-28.11-6.88c-34.6,7-46.79,49.71-51,75.74a26.62,26.62,0,0,1-20.73,22C3.8,113,.15,190.33.15,190.33c-3.6,81.95,59.83,95.22,82,97.36a26.66,26.66,0,0,0,13.39-2.21l18.5-8.22C118.21,275.41,123.26,275.22,126,271.59Z"/><path class="cls-2" d="M148.33,47.41s14.9-25.79,51.6-33.64"/><path class="cls-3" d="M301.62,201.24s39.56-19.58,67-20.07"/><path class="cls-2" d="M28.25,205.15s35.8-23.32,50.93-29.76"/><path class="cls-4" d="M82.15,126.92l-3.27,33.64s17.41,17,124.72,14.33l21-19.36L256.87,130S152.21,142.45,82.15,126.92Z"/><path class="cls-2" d="M85.39,87.28l-6.06,85.84a3.45,3.45,0,0,0,2,3.35c7.91,3.61,39,14.81,113.31,9.94"/><path class="cls-5" d="M123.66,272a2.22,2.22,0,0,1-2.48-3.43C245.27,102.53,330.86,97.11,351,98.67a22.87,22.87,0,0,1,8.26,2.28c31.43,15.54,39.44,44.18,41.15,62.69a25.1,25.1,0,0,1-16.59,25.94c-21.2,7.52-42.27,11.74-56.45,12.88-3.95.31-17-.86-21-1.18-21.46-1.73-68.67,19.54-68.67,19.54L133.24,268.73Z"/><path class="cls-2" d="M301.62,201.24s31-23.38,53.16-20.07"/></g></g></svg>