<svg xmlns="http://www.w3.org/2000/svg" viewBox="0 0 405.54 292.81"><defs><style>.cls-1{fill:#b67445;}.cls-1,.cls-2,.cls-3{stroke:#000;stroke-miterlimit:10;stroke-width:5px;}.cls-2{fill:none;stroke-linecap:round;}.cls-3{fill:#fadcb8;}</style></defs><title>western_1</title><g id="Layer_2" data-name="Layer 2"><g id="Layer_1-2" data-name="Layer 1"><path class="cls-1" d="M128.5,274.09c82.24-108.92,148-150.34,176.09-163.1,10.73-4.87,10.85-15.43,9.34-27.11-5.81-44.8-23.35-67.71-23.35-67.71-11.45-21-46.12-11.51-46.12-11.51C211.93,15.29,192.7,17,182.32,16.6a26.63,26.63,0,0,1-14.12-4.66,39.22,39.22,0,0,0-28.11-6.88c-34.6,7-46.79,49.71-51,75.74a26.62,26.62,0,0,1-20.73,22c-62,12.7-65.68,90.08-65.68,90.08-3.6,81.95,59.83,95.22,82,97.36A26.66,26.66,0,0,0,98.05,288l18.5-8.22C120.71,277.91,125.76,277.72,128.5,274.09Z"/><path class="cls-2" d="M150.83,49.91s9.59-26.15,46.29-34"/><path class="cls-2" d="M304.12,203.74s39.56-19.58,67-20.07"/><path class="cls-2" d="M30.75,207.65s35.8-23.32,50.93-29.76"/><path class="cls-3" d="M85.36,129.43l-2.43,28.86s27.86,16.93,135.71,11.11L227.3,162l39.06-29.32S155.42,145,85.36,129.43Z"/><path class="cls-2" d="M89.06,80.8l-7.23,94.82a3.45,3.45,0,0,0,2,3.35c7.91,3.61,39,14.81,113.31,9.94"/><path class="cls-1" d="M126.25,276.13c-2.06.69-4.32,1.83-3,.09,124.09-166,210.13-176.61,230.3-175a22.87,22.87,0,0,1,8.26,2.28c31.43,15.54,39.44,44.18,41.15,62.69a25.1,25.1,0,0,1-16.59,25.94c-21.2,7.52-42.27,11.74-56.45,12.88-3.95.31-17-.86-21-1.18-21.46-1.73-68.67,19.54-68.67,19.54L135.74,271.23Z"/><path class="cls-2" d="M304.12,203.74s31-23.38,53.16-20.07"/></g></g></svg>